<mxfile host="app.diagrams.net" modified="2022-08-13T21:27:53.835Z" agent="5.0 (Macintosh; Intel Mac OS X 10_15_7) AppleWebKit/537.36 (KHTML, like Gecko) Chrome/104.0.0.0 Safari/537.36" etag="m17D9rA9yT65n1CE8Lpe" version="20.2.3" type="github">
  <diagram id="b5Q1tEY_qJwvRrVNgjek" name="第 1 页">
    <mxGraphModel dx="1238" dy="2322" grid="1" gridSize="10" guides="1" tooltips="1" connect="1" arrows="1" fold="1" page="1" pageScale="1" pageWidth="827" pageHeight="1169" math="0" shadow="0">
      <root>
        <mxCell id="0" />
        <mxCell id="1" parent="0" />
        <mxCell id="eTKaB4d6App-F-T8Km_a-1" value="" style="verticalLabelPosition=bottom;html=1;verticalAlign=top;strokeColor=none;fillColor=#3399FF;shape=mxgraph.azure.dropbox_code_source;dashed=1;fontSize=14;fontColor=#004C99" parent="1" vertex="1">
          <mxGeometry x="690" y="22.5" width="50" height="47.5" as="geometry" />
        </mxCell>
        <mxCell id="eTKaB4d6App-F-T8Km_a-2" value="" style="verticalLabelPosition=bottom;html=1;verticalAlign=top;strokeColor=none;fillColor=#3399FF;shape=mxgraph.azure.github_code;dashed=1;fontSize=14;fontColor=#004C99" parent="1" vertex="1">
          <mxGeometry x="530" y="30" width="50" height="50" as="geometry" />
        </mxCell>
        <mxCell id="eTKaB4d6App-F-T8Km_a-3" value="Devices" style="verticalLabelPosition=bottom;html=1;verticalAlign=top;strokeColor=none;fillColor=#3399FF;shape=mxgraph.azure.laptop;dashed=1;fontFamily=Helvetica;fontSize=14;fontColor=#004C99" parent="1" vertex="1">
          <mxGeometry x="120" y="322" width="50" height="30" as="geometry" />
        </mxCell>
        <mxCell id="eTKaB4d6App-F-T8Km_a-4" value="Cloud" style="verticalLabelPosition=bottom;html=1;verticalAlign=top;strokeColor=none;fillColor=#3399FF;shape=mxgraph.azure.cloud;dashed=1;fontSize=14;fontColor=#004C99" parent="1" vertex="1">
          <mxGeometry x="364" y="30" width="50" height="32.5" as="geometry" />
        </mxCell>
        <mxCell id="eTKaB4d6App-F-T8Km_a-5" value="InterNet" style="verticalLabelPosition=bottom;html=1;verticalAlign=top;strokeColor=none;fillColor=#3399FF;shape=mxgraph.azure.azure_website;dashed=1;fontSize=14;fontColor=#004C99" parent="1" vertex="1">
          <mxGeometry x="1003" y="-760" width="50" height="50" as="geometry" />
        </mxCell>
        <mxCell id="eTKaB4d6App-F-T8Km_a-6" value="Virtual Machine" style="verticalLabelPosition=bottom;html=1;verticalAlign=top;strokeColor=none;fillColor=#3399FF;shape=mxgraph.azure.virtual_machine;dashed=1;fontSize=14;fontColor=#004C99" parent="1" vertex="1">
          <mxGeometry x="120" y="150" width="50" height="40" as="geometry" />
        </mxCell>
        <mxCell id="eTKaB4d6App-F-T8Km_a-8" value="Database" style="verticalLabelPosition=bottom;html=1;verticalAlign=top;strokeColor=none;fillColor=#3399FF;shape=mxgraph.azure.database;dashed=1;fontFamily=Helvetica;fontSize=14;fontColor=#004C99" parent="1" vertex="1">
          <mxGeometry x="250" y="1000" width="37.5" height="50" as="geometry" />
        </mxCell>
        <mxCell id="eTKaB4d6App-F-T8Km_a-9" value="Storage Servers" style="verticalLabelPosition=bottom;html=1;verticalAlign=top;strokeColor=none;fillColor=#3399FF;shape=mxgraph.azure.server_rack;dashed=1;fontFamily=Helvetica;fontSize=14;fontColor=#004C99" parent="1" vertex="1">
          <mxGeometry x="120" width="50" height="50" as="geometry" />
        </mxCell>
        <mxCell id="eTKaB4d6App-F-T8Km_a-10" value="Physical&lt;div&gt;Data Storage&lt;/div&gt;" style="verticalLabelPosition=bottom;html=1;verticalAlign=top;strokeColor=none;fillColor=#3399FF;shape=mxgraph.azure.vhd;dashed=1;fontFamily=Helvetica;fontSize=14;fontColor=#004C99" parent="1" vertex="1">
          <mxGeometry x="120" y="460" width="40" height="50" as="geometry" />
        </mxCell>
        <mxCell id="3Nzo_0Z1UaSwp5EyXcx5-1" value="6" style="rounded=1;whiteSpace=wrap;html=1;fillColor=#007CBD;strokeColor=none;fontColor=#FFFFFF;fontStyle=1;fontSize=22;" vertex="1" parent="1">
          <mxGeometry y="400" width="40" height="38" as="geometry" />
        </mxCell>
        <mxCell id="3Nzo_0Z1UaSwp5EyXcx5-2" value="7" style="rounded=1;whiteSpace=wrap;html=1;fillColor=#007CBD;strokeColor=none;fontColor=#FFFFFF;fontStyle=1;fontSize=22;" vertex="1" parent="1">
          <mxGeometry y="480" width="40" height="38" as="geometry" />
        </mxCell>
        <mxCell id="3Nzo_0Z1UaSwp5EyXcx5-3" value="1" style="rounded=1;whiteSpace=wrap;html=1;fillColor=#007CBD;strokeColor=none;fontColor=#FFFFFF;fontStyle=1;fontSize=22;" vertex="1" parent="1">
          <mxGeometry width="40" height="38" as="geometry" />
        </mxCell>
        <mxCell id="3Nzo_0Z1UaSwp5EyXcx5-4" value="2" style="rounded=1;whiteSpace=wrap;html=1;fillColor=#007CBD;strokeColor=none;fontColor=#FFFFFF;fontStyle=1;fontSize=22;" vertex="1" parent="1">
          <mxGeometry y="80" width="40" height="38" as="geometry" />
        </mxCell>
        <mxCell id="3Nzo_0Z1UaSwp5EyXcx5-5" value="3" style="rounded=1;whiteSpace=wrap;html=1;fillColor=#007CBD;strokeColor=none;fontColor=#FFFFFF;fontStyle=1;fontSize=22;" vertex="1" parent="1">
          <mxGeometry y="160" width="40" height="38" as="geometry" />
        </mxCell>
        <mxCell id="3Nzo_0Z1UaSwp5EyXcx5-6" value="4" style="rounded=1;whiteSpace=wrap;html=1;fillColor=#007CBD;strokeColor=none;fontColor=#FFFFFF;fontStyle=1;fontSize=22;" vertex="1" parent="1">
          <mxGeometry y="240" width="40" height="38" as="geometry" />
        </mxCell>
        <mxCell id="3Nzo_0Z1UaSwp5EyXcx5-7" value="5" style="rounded=1;whiteSpace=wrap;html=1;fillColor=#007CBD;strokeColor=none;fontColor=#FFFFFF;fontStyle=1;fontSize=22;" vertex="1" parent="1">
          <mxGeometry y="322" width="40" height="38" as="geometry" />
        </mxCell>
        <mxCell id="3Nzo_0Z1UaSwp5EyXcx5-10" value="8" style="rounded=1;whiteSpace=wrap;html=1;fillColor=#007CBD;strokeColor=none;fontColor=#FFFFFF;fontStyle=1;fontSize=22;" vertex="1" parent="1">
          <mxGeometry y="560" width="40" height="38" as="geometry" />
        </mxCell>
        <mxCell id="3Nzo_0Z1UaSwp5EyXcx5-11" value="9" style="rounded=1;whiteSpace=wrap;html=1;fillColor=#007CBD;strokeColor=none;fontColor=#FFFFFF;fontStyle=1;fontSize=22;" vertex="1" parent="1">
          <mxGeometry y="640" width="40" height="38" as="geometry" />
        </mxCell>
        <mxCell id="3Nzo_0Z1UaSwp5EyXcx5-12" value="10" style="rounded=1;whiteSpace=wrap;html=1;fillColor=#007CBD;strokeColor=none;fontColor=#FFFFFF;fontStyle=1;fontSize=22;" vertex="1" parent="1">
          <mxGeometry y="720" width="40" height="38" as="geometry" />
        </mxCell>
        <mxCell id="3Nzo_0Z1UaSwp5EyXcx5-13" value="Bucket" style="outlineConnect=0;fontColor=#232F3E;gradientColor=none;fillColor=#277116;strokeColor=none;dashed=0;verticalLabelPosition=bottom;verticalAlign=top;align=center;html=1;fontSize=12;fontStyle=0;aspect=fixed;pointerEvents=1;shape=mxgraph.aws4.bucket_with_objects;labelBackgroundColor=#ffffff;" vertex="1" parent="1">
          <mxGeometry x="1020" y="140" width="75" height="78" as="geometry" />
        </mxCell>
        <mxCell id="3Nzo_0Z1UaSwp5EyXcx5-14" value="Bucket" style="outlineConnect=0;fontColor=#232F3E;gradientColor=none;fillColor=#277116;strokeColor=none;dashed=0;verticalLabelPosition=bottom;verticalAlign=top;align=center;html=1;fontSize=12;fontStyle=0;aspect=fixed;pointerEvents=1;shape=mxgraph.aws4.bucket;labelBackgroundColor=#ffffff;" vertex="1" parent="1">
          <mxGeometry x="1020" y="288" width="75" height="78" as="geometry" />
        </mxCell>
        <mxCell id="3Nzo_0Z1UaSwp5EyXcx5-15" value="Amazon &lt;br&gt;Cognito" style="outlineConnect=0;fontColor=#232F3E;gradientColor=#F54749;gradientDirection=north;fillColor=#C7131F;strokeColor=#ffffff;dashed=0;verticalLabelPosition=bottom;verticalAlign=top;align=center;html=1;fontSize=12;fontStyle=0;aspect=fixed;shape=mxgraph.aws4.resourceIcon;resIcon=mxgraph.aws4.cognito;labelBackgroundColor=#ffffff;" vertex="1" parent="1">
          <mxGeometry x="1080" y="1230" width="78" height="78" as="geometry" />
        </mxCell>
        <mxCell id="3Nzo_0Z1UaSwp5EyXcx5-16" value="Active&lt;br&gt;Directory" style="outlineConnect=0;fontColor=#232F3E;gradientColor=#F54749;gradientDirection=north;fillColor=#C7131F;strokeColor=#ffffff;dashed=0;verticalLabelPosition=bottom;verticalAlign=top;align=center;html=1;fontSize=12;fontStyle=0;aspect=fixed;shape=mxgraph.aws4.resourceIcon;resIcon=mxgraph.aws4.cloud_directory;labelBackgroundColor=#ffffff;" vertex="1" parent="1">
          <mxGeometry x="1080" y="720" width="78" height="78" as="geometry" />
        </mxCell>
        <mxCell id="3Nzo_0Z1UaSwp5EyXcx5-17" value="Amazon S3" style="outlineConnect=0;fontColor=#232F3E;gradientColor=#60A337;gradientDirection=north;fillColor=#277116;strokeColor=#ffffff;dashed=0;verticalLabelPosition=bottom;verticalAlign=top;align=center;html=1;fontSize=12;fontStyle=0;aspect=fixed;shape=mxgraph.aws4.resourceIcon;resIcon=mxgraph.aws4.s3;labelBackgroundColor=#ffffff;" vertex="1" parent="1">
          <mxGeometry x="1017.0000000000002" y="20" width="78" height="78" as="geometry" />
        </mxCell>
        <mxCell id="3Nzo_0Z1UaSwp5EyXcx5-18" value="Amazon&lt;br&gt;DynamoDB&lt;br&gt;" style="outlineConnect=0;fontColor=#232F3E;gradientColor=#4D72F3;gradientDirection=north;fillColor=#3334B9;strokeColor=#ffffff;dashed=0;verticalLabelPosition=bottom;verticalAlign=top;align=center;html=1;fontSize=12;fontStyle=0;aspect=fixed;shape=mxgraph.aws4.resourceIcon;resIcon=mxgraph.aws4.dynamodb;labelBackgroundColor=#ffffff;spacingTop=5;" vertex="1" parent="1">
          <mxGeometry x="240.00000000000023" y="798" width="78" height="78" as="geometry" />
        </mxCell>
        <mxCell id="3Nzo_0Z1UaSwp5EyXcx5-19" value="Amazon&lt;br&gt;ElasticSearch&lt;br&gt;Service&lt;br&gt;" style="outlineConnect=0;fontColor=#232F3E;gradientColor=#945DF2;gradientDirection=north;fillColor=#5A30B5;strokeColor=#ffffff;dashed=0;verticalLabelPosition=bottom;verticalAlign=top;align=center;html=1;fontSize=12;fontStyle=0;aspect=fixed;shape=mxgraph.aws4.resourceIcon;resIcon=mxgraph.aws4.elasticsearch_service;labelBackgroundColor=#ffffff;" vertex="1" parent="1">
          <mxGeometry x="698.0000000000002" y="1120" width="78" height="78" as="geometry" />
        </mxCell>
        <mxCell id="3Nzo_0Z1UaSwp5EyXcx5-20" value="Amazon&lt;br&gt;CloudWatch&lt;br&gt;" style="outlineConnect=0;fontColor=#232F3E;gradientColor=#F34482;gradientDirection=north;fillColor=#BC1356;strokeColor=#ffffff;dashed=0;verticalLabelPosition=bottom;verticalAlign=top;align=center;html=1;fontSize=12;fontStyle=0;aspect=fixed;shape=mxgraph.aws4.resourceIcon;resIcon=mxgraph.aws4.cloudwatch;labelBackgroundColor=#ffffff;" vertex="1" parent="1">
          <mxGeometry x="698.0000000000002" y="1235" width="78" height="78" as="geometry" />
        </mxCell>
        <mxCell id="3Nzo_0Z1UaSwp5EyXcx5-22" value="Security&lt;br&gt;Cross-Account&lt;br&gt;Roles&lt;br&gt;" style="outlineConnect=0;fontColor=#232F3E;gradientColor=none;fillColor=#C7131F;strokeColor=none;dashed=0;verticalLabelPosition=bottom;verticalAlign=top;align=center;html=1;fontSize=12;fontStyle=0;aspect=fixed;pointerEvents=1;shape=mxgraph.aws4.addon;labelBackgroundColor=#ffffff;" vertex="1" parent="1">
          <mxGeometry x="1140" y="-190" width="78" height="40" as="geometry" />
        </mxCell>
        <mxCell id="3Nzo_0Z1UaSwp5EyXcx5-23" value="" style="verticalLabelPosition=bottom;html=1;verticalAlign=top;strokeWidth=1;dashed=0;shape=mxgraph.aws3d.secureConnection;fillColor=#000000;strokeColor=#ffffff;aspect=fixed;rounded=1;shadow=0;comic=0;fontSize=12" vertex="1" parent="1">
          <mxGeometry x="911" y="1358" width="56.99999999999999" height="34" as="geometry" />
        </mxCell>
        <mxCell id="3Nzo_0Z1UaSwp5EyXcx5-26" value="Azure Group" style="whiteSpace=wrap;html=1;rounded=1;shadow=0;strokeColor=none;strokeWidth=2;fillColor=#009BFF;fontSize=20;fontColor=#FFFFFF;align=center;arcSize=3;verticalAlign=top;spacingTop=4;" vertex="1" parent="1">
          <mxGeometry x="170" y="1479" width="1180" height="550" as="geometry" />
        </mxCell>
        <mxCell id="3Nzo_0Z1UaSwp5EyXcx5-27" value="On-premises networks" style="rounded=1;whiteSpace=wrap;html=1;shadow=0;strokeWidth=2;fillColor=#F04D22;fontSize=12;fontColor=#FFFFFF;align=center;strokeColor=none;arcSize=6;verticalAlign=top;" vertex="1" parent="1">
          <mxGeometry x="601" y="640" width="230" height="330" as="geometry" />
        </mxCell>
        <mxCell id="3Nzo_0Z1UaSwp5EyXcx5-28" value="Gateway" style="shadow=0;dashed=0;html=1;strokeColor=none;shape=mxgraph.mscae.enterprise.gateway;fillColor=#FFFFFF;rounded=0;fontSize=12;fontColor=#FFFFFF;align=center;labelPosition=center;verticalLabelPosition=top;verticalAlign=bottom;" vertex="1" parent="1">
          <mxGeometry x="660" y="700" width="50" height="50" as="geometry" />
        </mxCell>
        <mxCell id="3Nzo_0Z1UaSwp5EyXcx5-30" value="Firewall" style="shadow=0;dashed=0;html=1;strokeColor=none;labelPosition=right;verticalLabelPosition=middle;verticalAlign=middle;shape=mxgraph.office.concepts.firewall;fillColor=#FFFFFF;rounded=1;fontSize=11;fontColor=#FFFFFF;align=left;spacingLeft=5;" vertex="1" parent="1">
          <mxGeometry x="310" y="1580" width="47" height="43" as="geometry" />
        </mxCell>
        <mxCell id="3Nzo_0Z1UaSwp5EyXcx5-31" value="" style="rounded=0;whiteSpace=wrap;html=1;shadow=0;strokeWidth=2;fillColor=#F04D22;fontSize=12;fontColor=#FFFFFF;align=center;strokeColor=none;arcSize=6;verticalAlign=top;" vertex="1" parent="1">
          <mxGeometry x="170" y="1250" width="300" height="102" as="geometry" />
        </mxCell>
        <mxCell id="3Nzo_0Z1UaSwp5EyXcx5-32" value="" style="rounded=0;whiteSpace=wrap;html=1;shadow=0;strokeWidth=2;fillColor=#F04D22;fontSize=12;fontColor=#FFFFFF;align=center;strokeColor=none;arcSize=6;verticalAlign=top;" vertex="1" parent="1">
          <mxGeometry x="193" y="2250" width="300" height="102" as="geometry" />
        </mxCell>
        <mxCell id="3Nzo_0Z1UaSwp5EyXcx5-33" value="" style="rounded=0;whiteSpace=wrap;html=1;shadow=0;strokeWidth=2;fillColor=#8BC63E;fontSize=12;fontColor=#FFFFFF;align=center;strokeColor=none;arcSize=6;verticalAlign=top;" vertex="1" parent="1">
          <mxGeometry x="493" y="2250" width="400" height="102" as="geometry" />
        </mxCell>
        <mxCell id="3Nzo_0Z1UaSwp5EyXcx5-34" value="" style="rounded=0;whiteSpace=wrap;html=1;shadow=0;strokeWidth=2;fillColor=#0072BC;fontSize=12;fontColor=#FFFFFF;align=center;strokeColor=none;arcSize=3;verticalAlign=top;" vertex="1" parent="1">
          <mxGeometry x="893" y="2250" width="390" height="102" as="geometry" />
        </mxCell>
        <mxCell id="3Nzo_0Z1UaSwp5EyXcx5-35" value="A" style="text;html=1;strokeColor=none;fillColor=none;align=center;verticalAlign=middle;whiteSpace=wrap;rounded=1;shadow=0;fontSize=30;fontColor=#FFFFFF;fontStyle=1" vertex="1" parent="1">
          <mxGeometry x="193" y="2283" width="40" height="35" as="geometry" />
        </mxCell>
        <mxCell id="3Nzo_0Z1UaSwp5EyXcx5-36" value="B" style="text;html=1;strokeColor=none;fillColor=none;align=center;verticalAlign=middle;whiteSpace=wrap;rounded=1;shadow=0;fontSize=30;fontColor=#FFFFFF;fontStyle=1" vertex="1" parent="1">
          <mxGeometry x="493" y="2283" width="40" height="35" as="geometry" />
        </mxCell>
        <mxCell id="3Nzo_0Z1UaSwp5EyXcx5-37" value="C" style="text;html=1;strokeColor=none;fillColor=none;align=center;verticalAlign=middle;whiteSpace=wrap;rounded=1;shadow=0;fontSize=30;fontColor=#FFFFFF;fontStyle=1" vertex="1" parent="1">
          <mxGeometry x="893" y="2283" width="40" height="35" as="geometry" />
        </mxCell>
        <mxCell id="3Nzo_0Z1UaSwp5EyXcx5-38" value="Computer" style="verticalLabelPosition=top;html=1;verticalAlign=bottom;strokeColor=none;fillColor=#FFFFFF;shape=mxgraph.azure.computer;rounded=0;shadow=0;fontSize=10;fontColor=#FFFFFF;align=center;labelPosition=center;" vertex="1" parent="1">
          <mxGeometry x="260" y="2290" width="50" height="45" as="geometry" />
        </mxCell>
        <mxCell id="3Nzo_0Z1UaSwp5EyXcx5-39" value="VHD" style="shadow=0;html=1;strokeColor=none;fillColor=#FFFFFF;labelPosition=center;verticalLabelPosition=top;verticalAlign=bottom;shape=mxgraph.azure.vhd;rounded=0;fontSize=10;fontColor=#FFFFFF;align=center;" vertex="1" parent="1">
          <mxGeometry x="350" y="2287" width="40" height="50" as="geometry" />
        </mxCell>
        <mxCell id="3Nzo_0Z1UaSwp5EyXcx5-40" value="+" style="text;html=1;strokeColor=none;fillColor=none;align=center;verticalAlign=middle;whiteSpace=wrap;rounded=1;shadow=0;fontSize=30;fontColor=#FFFFFF;fontStyle=1" vertex="1" parent="1">
          <mxGeometry x="310" y="2295" width="40" height="35" as="geometry" />
        </mxCell>
        <mxCell id="3Nzo_0Z1UaSwp5EyXcx5-41" value="+" style="text;html=1;strokeColor=none;fillColor=none;align=center;verticalAlign=middle;whiteSpace=wrap;rounded=1;shadow=0;fontSize=30;fontColor=#FFFFFF;fontStyle=1" vertex="1" parent="1">
          <mxGeometry x="390" y="2295" width="40" height="35" as="geometry" />
        </mxCell>
        <mxCell id="3Nzo_0Z1UaSwp5EyXcx5-42" value="Server&lt;div&gt;Directory&lt;/div&gt;" style="shadow=0;html=1;strokeColor=none;shape=mxgraph.mscae.enterprise.server_directory;fillColor=#FFFFFF;rounded=0;fontSize=10;fontColor=#FFFFFF;align=center;verticalAlign=bottom;labelPosition=center;verticalLabelPosition=top;" vertex="1" parent="1">
          <mxGeometry x="430" y="2288" width="36" height="50" as="geometry" />
        </mxCell>
        <mxCell id="3Nzo_0Z1UaSwp5EyXcx5-43" value="VM Feature" style="shadow=0;html=1;strokeColor=none;fillColor=#FFFFFF;labelPosition=center;verticalLabelPosition=top;verticalAlign=bottom;shape=mxgraph.azure.virtual_machine_feature;rounded=0;fontSize=10;fontColor=#FFFFFF;align=center;" vertex="1" parent="1">
          <mxGeometry x="551" y="2291" width="50" height="45" as="geometry" />
        </mxCell>
        <mxCell id="3Nzo_0Z1UaSwp5EyXcx5-44" value="+" style="text;html=1;strokeColor=none;fillColor=none;align=center;verticalAlign=middle;whiteSpace=wrap;rounded=1;shadow=0;fontSize=30;fontColor=#FFFFFF;fontStyle=1" vertex="1" parent="1">
          <mxGeometry x="601" y="2296" width="40" height="35" as="geometry" />
        </mxCell>
        <mxCell id="3Nzo_0Z1UaSwp5EyXcx5-45" value="VHD" style="shadow=0;html=1;strokeColor=none;fillColor=#FFFFFF;labelPosition=center;verticalLabelPosition=top;verticalAlign=bottom;shape=mxgraph.azure.vhd;rounded=0;fontSize=10;fontColor=#FFFFFF;align=center;" vertex="1" parent="1">
          <mxGeometry x="641" y="2288" width="40" height="50" as="geometry" />
        </mxCell>
        <mxCell id="3Nzo_0Z1UaSwp5EyXcx5-46" value="3rd Party&lt;div&gt;Integration&lt;/div&gt;" style="shadow=0;html=1;strokeColor=none;fillColor=#FFFFFF;labelPosition=center;verticalLabelPosition=top;verticalAlign=bottom;shape=mxgraph.office.communications.3rd_party_integration;rounded=0;fontSize=10;fontColor=#FFFFFF;align=center;" vertex="1" parent="1">
          <mxGeometry x="721" y="2286" width="54" height="55" as="geometry" />
        </mxCell>
        <mxCell id="3Nzo_0Z1UaSwp5EyXcx5-47" value="+" style="text;html=1;strokeColor=none;fillColor=none;align=center;verticalAlign=middle;whiteSpace=wrap;rounded=1;shadow=0;fontSize=30;fontColor=#FFFFFF;fontStyle=1" vertex="1" parent="1">
          <mxGeometry x="681" y="2296" width="40" height="35" as="geometry" />
        </mxCell>
        <mxCell id="3Nzo_0Z1UaSwp5EyXcx5-48" value="+" style="text;html=1;strokeColor=none;fillColor=none;align=center;verticalAlign=middle;whiteSpace=wrap;rounded=1;shadow=0;fontSize=30;fontColor=#FFFFFF;fontStyle=1" vertex="1" parent="1">
          <mxGeometry x="775" y="2296" width="40" height="35" as="geometry" />
        </mxCell>
        <mxCell id="3Nzo_0Z1UaSwp5EyXcx5-49" value="Data Migration&lt;div&gt;Wizard&lt;/div&gt;" style="shadow=0;html=1;strokeColor=none;shape=mxgraph.mscae.intune.data_migration_wizard;fillColor=#FFFFFF;rounded=0;fontSize=10;fontColor=#FFFFFF;align=center;verticalAlign=bottom;labelPosition=center;verticalLabelPosition=top;" vertex="1" parent="1">
          <mxGeometry x="815" y="2289" width="50" height="48" as="geometry" />
        </mxCell>
        <mxCell id="3Nzo_0Z1UaSwp5EyXcx5-50" value="VM Feature" style="shadow=0;html=1;strokeColor=none;fillColor=#FFFFFF;labelPosition=center;verticalLabelPosition=top;verticalAlign=bottom;shape=mxgraph.azure.virtual_machine_feature;rounded=0;fontSize=10;fontColor=#FFFFFF;align=center;" vertex="1" parent="1">
          <mxGeometry x="953" y="2291" width="50" height="45" as="geometry" />
        </mxCell>
        <mxCell id="3Nzo_0Z1UaSwp5EyXcx5-51" value="" style="line;strokeWidth=2;direction=south;html=1;rounded=0;shadow=0;fillColor=none;fontSize=30;fontColor=#FFFFFF;align=center;strokeColor=#FFFFFF;" vertex="1" parent="1">
          <mxGeometry x="233" y="2250" width="10" height="102" as="geometry" />
        </mxCell>
        <mxCell id="3Nzo_0Z1UaSwp5EyXcx5-52" value="" style="line;strokeWidth=2;direction=south;html=1;rounded=0;shadow=0;fillColor=none;fontSize=30;fontColor=#FFFFFF;align=center;strokeColor=#FFFFFF;" vertex="1" parent="1">
          <mxGeometry x="533" y="2250" width="10" height="102" as="geometry" />
        </mxCell>
        <mxCell id="3Nzo_0Z1UaSwp5EyXcx5-53" value="" style="line;strokeWidth=2;direction=south;html=1;rounded=0;shadow=0;fillColor=none;fontSize=30;fontColor=#FFFFFF;align=center;strokeColor=#FFFFFF;" vertex="1" parent="1">
          <mxGeometry x="933" y="2250" width="10" height="102" as="geometry" />
        </mxCell>
        <mxCell id="3Nzo_0Z1UaSwp5EyXcx5-54" value="+" style="text;html=1;strokeColor=none;fillColor=none;align=center;verticalAlign=middle;whiteSpace=wrap;rounded=1;shadow=0;fontSize=30;fontColor=#FFFFFF;fontStyle=1" vertex="1" parent="1">
          <mxGeometry x="1003" y="2296" width="40" height="35" as="geometry" />
        </mxCell>
        <mxCell id="3Nzo_0Z1UaSwp5EyXcx5-55" value="Azure&lt;div&gt;Website&lt;/div&gt;" style="verticalLabelPosition=top;html=1;verticalAlign=bottom;strokeColor=none;fillColor=#FFFFFF;shape=mxgraph.azure.azure_website;rounded=0;shadow=0;fontSize=10;fontColor=#FFFFFF;align=center;labelPosition=center;" vertex="1" parent="1">
          <mxGeometry x="1043" y="2288" width="50" height="50" as="geometry" />
        </mxCell>
        <mxCell id="3Nzo_0Z1UaSwp5EyXcx5-56" value="+" style="text;html=1;strokeColor=none;fillColor=none;align=center;verticalAlign=middle;whiteSpace=wrap;rounded=1;shadow=0;fontSize=30;fontColor=#FFFFFF;fontStyle=1" vertex="1" parent="1">
          <mxGeometry x="1093" y="2296" width="40" height="35" as="geometry" />
        </mxCell>
        <mxCell id="3Nzo_0Z1UaSwp5EyXcx5-57" value="MySQL&lt;div&gt;Database&lt;/div&gt;" style="verticalLabelPosition=top;html=1;verticalAlign=bottom;strokeColor=none;fillColor=#FFFFFF;shape=mxgraph.azure.mysql_database;rounded=0;shadow=0;fontSize=10;fontColor=#FFFFFF;align=center;labelPosition=center;" vertex="1" parent="1">
          <mxGeometry x="1133" y="2289" width="37.5" height="50" as="geometry" />
        </mxCell>
        <mxCell id="3Nzo_0Z1UaSwp5EyXcx5-58" value="+" style="text;html=1;strokeColor=none;fillColor=none;align=center;verticalAlign=middle;whiteSpace=wrap;rounded=1;shadow=0;fontSize=30;fontColor=#FFFFFF;fontStyle=1" vertex="1" parent="1">
          <mxGeometry x="1171" y="2296" width="40" height="35" as="geometry" />
        </mxCell>
        <mxCell id="3Nzo_0Z1UaSwp5EyXcx5-59" value="Azure&lt;div&gt;Storage&lt;/div&gt;" style="shadow=0;html=1;strokeColor=none;labelPosition=center;verticalLabelPosition=top;verticalAlign=bottom;shape=mxgraph.mscae.cloud.azure_storage;fillColor=#FFFFFF;rounded=0;fontSize=10;fontColor=#FFFFFF;align=center;" vertex="1" parent="1">
          <mxGeometry x="1211" y="2292" width="50" height="43" as="geometry" />
        </mxCell>
        <mxCell id="3Nzo_0Z1UaSwp5EyXcx5-60" value="&lt;h1&gt;Heading&lt;/h1&gt;&lt;p&gt;Lorem ipsum dolor sit amet, consectetur adipisicing elit, sed do eiusmod tempor incididunt ut labore et dolore magna aliqua.&lt;/p&gt;" style="text;html=1;strokeColor=none;fillColor=none;spacing=5;spacingTop=-20;whiteSpace=wrap;overflow=hidden;rounded=0;shadow=0;fontSize=10;fontColor=#FFFFFF;align=left;" vertex="1" parent="1">
          <mxGeometry x="190" y="2382" width="1041" height="70" as="geometry" />
        </mxCell>
        <mxCell id="3Nzo_0Z1UaSwp5EyXcx5-61" value="VPN Gateway" style="aspect=fixed;html=1;perimeter=none;align=center;shadow=0;dashed=0;image;fontSize=12;image=img/lib/mscae/VPN_Gateway.svg;" vertex="1" parent="1">
          <mxGeometry x="320.5" y="218" width="45" height="50" as="geometry" />
        </mxCell>
        <mxCell id="3Nzo_0Z1UaSwp5EyXcx5-62" value="SECURITY" style="aspect=fixed;perimeter=ellipsePerimeter;html=1;align=center;shadow=0;dashed=0;image;image=img/lib/ibm/blockchain/certificate_authority.svg;strokeColor=#FF0000;fillColor=#FFFF66;gradientColor=none;fontColor=#4277BB;labelBackgroundColor=#ffffff;spacingTop=3;" vertex="1" parent="1">
          <mxGeometry x="953" y="480" width="60" height="60" as="geometry" />
        </mxCell>
        <mxCell id="3Nzo_0Z1UaSwp5EyXcx5-63" value="Application component" style="rounded=0;html=1;shadow=0;labelBackgroundColor=none;strokeColor=none;strokeWidth=2;fillColor=#EBC01A;gradientColor=none;fontSize=12;fontColor=#4277BB;align=left;labelPosition=right;verticalLabelPosition=middle;verticalAlign=middle;spacingLeft=5;" vertex="1" parent="1">
          <mxGeometry x="100" y="1094" width="20" height="10" as="geometry" />
        </mxCell>
        <mxCell id="3Nzo_0Z1UaSwp5EyXcx5-64" value="Infrastructure services" style="rounded=0;html=1;shadow=0;labelBackgroundColor=none;strokeColor=none;strokeWidth=2;fillColor=#8DC642;gradientColor=none;fontSize=12;fontColor=#4277BB;align=left;labelPosition=right;verticalLabelPosition=middle;verticalAlign=middle;spacingLeft=5;" vertex="1" parent="1">
          <mxGeometry x="100" y="1114" width="20" height="10" as="geometry" />
        </mxCell>
        <mxCell id="3Nzo_0Z1UaSwp5EyXcx5-65" value="Management" style="rounded=0;html=1;shadow=0;labelBackgroundColor=none;strokeColor=none;strokeWidth=2;fillColor=#0DB39D;gradientColor=none;fontSize=12;fontColor=#4277BB;align=left;labelPosition=right;verticalLabelPosition=middle;verticalAlign=middle;spacingLeft=5;" vertex="1" parent="1">
          <mxGeometry x="100" y="1134" width="20" height="10" as="geometry" />
        </mxCell>
        <mxCell id="3Nzo_0Z1UaSwp5EyXcx5-66" value="Data store" style="rounded=0;html=1;shadow=0;labelBackgroundColor=none;strokeColor=none;strokeWidth=2;fillColor=#335D81;gradientColor=none;fontSize=12;fontColor=#4277BB;align=left;labelPosition=right;verticalLabelPosition=middle;verticalAlign=middle;spacingLeft=5;" vertex="1" parent="1">
          <mxGeometry x="100" y="1154" width="20" height="10" as="geometry" />
        </mxCell>
        <mxCell id="3Nzo_0Z1UaSwp5EyXcx5-67" value="Analytics" style="rounded=0;html=1;shadow=0;labelBackgroundColor=none;strokeColor=none;strokeWidth=2;fillColor=#744399;gradientColor=none;fontSize=12;fontColor=#4277BB;align=left;labelPosition=right;verticalLabelPosition=middle;verticalAlign=middle;spacingLeft=5;" vertex="1" parent="1">
          <mxGeometry x="100" y="1174" width="20" height="10" as="geometry" />
        </mxCell>
        <mxCell id="3Nzo_0Z1UaSwp5EyXcx5-68" value="Device capabilities" style="rounded=0;html=1;shadow=0;labelBackgroundColor=none;strokeColor=none;strokeWidth=2;fillColor=#A72870;gradientColor=none;fontSize=12;fontColor=#4277BB;align=left;labelPosition=right;verticalLabelPosition=middle;verticalAlign=middle;spacingLeft=5;" vertex="1" parent="1">
          <mxGeometry x="100" y="1194" width="20" height="10" as="geometry" />
        </mxCell>
        <mxCell id="3Nzo_0Z1UaSwp5EyXcx5-69" value="Security" style="rounded=0;html=1;shadow=0;labelBackgroundColor=none;strokeColor=none;strokeWidth=2;fillColor=#E52134;gradientColor=none;fontSize=12;fontColor=#4277BB;align=left;labelPosition=right;verticalLabelPosition=middle;verticalAlign=middle;spacingLeft=5;" vertex="1" parent="1">
          <mxGeometry x="100" y="1214" width="20" height="10" as="geometry" />
        </mxCell>
        <mxCell id="3Nzo_0Z1UaSwp5EyXcx5-70" value="VPN&lt;br&gt;Gateway" style="aspect=fixed;perimeter=ellipsePerimeter;html=1;align=center;shadow=0;dashed=0;fontColor=#4277BB;labelBackgroundColor=#ffffff;fontSize=12;spacingTop=3;image;image=img/lib/ibm/vpc/VPNGateway.svg;" vertex="1" parent="1">
          <mxGeometry x="290" y="660" width="60" height="60" as="geometry" />
        </mxCell>
        <mxCell id="3Nzo_0Z1UaSwp5EyXcx5-71" value="Public&lt;br&gt;Load&lt;br&gt;Balancer" style="aspect=fixed;perimeter=ellipsePerimeter;html=1;align=center;shadow=0;dashed=0;fontColor=#4277BB;labelBackgroundColor=#ffffff;fontSize=12;spacingTop=3;image;image=img/lib/ibm/vpc/LoadBalancer.svg;labelPosition=center;verticalLabelPosition=top;verticalAlign=bottom;" vertex="1" parent="1">
          <mxGeometry x="190" y="660" width="60" height="60" as="geometry" />
        </mxCell>
        <mxCell id="3Nzo_0Z1UaSwp5EyXcx5-72" value="" style="aspect=fixed;perimeter=ellipsePerimeter;html=1;align=center;shadow=0;dashed=0;fontColor=#4277BB;labelBackgroundColor=#ffffff;fontSize=12;spacingTop=3;image;image=img/lib/ibm/vpc/ZoneTag.svg;part=1;" vertex="1" parent="1">
          <mxGeometry x="513" y="870" width="30" height="30" as="geometry" />
        </mxCell>
        <mxCell id="3Nzo_0Z1UaSwp5EyXcx5-73" value="Bare Metal" style="shape=image;verticalLabelPosition=bottom;labelBackgroundColor=white;verticalAlign=top;aspect=fixed;imageAspect=0;image=data:image/svg+xml,PHN2ZyB4bWxucz0iaHR0cDovL3d3dy53My5vcmcvMjAwMC9zdmciIHdpZHRoPSIxMDAuMDMyIiBoZWlnaHQ9IjEwMC4wMzIiIHZpZXdCb3g9IjAgMCA3NSA3NSIgZmlsbD0ibm9uZSIgZmlsbC1ydWxlPSJldmVub2RkIiBvdmVyZmxvdz0idmlzaWJsZSIgc3Ryb2tlLWxpbmVjYXA9InNxdWFyZSIgc3Ryb2tlLW1pdGVybGltaXQ9IjMiIGNvbG9yLWludGVycG9sYXRpb24tZmlsdGVycz0ic1JHQiI+PHN0eWxlPjwhW0NEQVRBWy5Ce2NvbG9yLWludGVycG9sYXRpb24tZmlsdGVyczpzUkdCfV1dPjwvc3R5bGU+PGNpcmNsZSByPSIzNy41IiBjeD0iMzcuNSIgY3k9IjM3LjUiIGZpbGw9IiM4ZGM1M2YiIGNsYXNzPSJCIi8+PHBhdGggZD0iTTE5LjA5NiA0OS43OTN2MTIuNzZoMzcuNTl2LTEyLjc2em0xMS4wOTIgMy4zMjhhMy4wNTMgMy4wNTMgMCAwIDEgMy4wNTMgMy4wNTMgMy4wNTMgMy4wNTMgMCAxIDEtNi4xMDUgMCAzLjA1MyAzLjA1MyAwIDAgMSAzLjA1My0zLjA1M3pNMTkuMDk2IDEzLjg3djEyLjc2aDM3LjU5VjEzLjg3em0xMS4wOTIgMy4zMjhhMy4wNTMgMy4wNTMgMCAwIDEgMy4wNTMgMy4wNTMgMy4wNTMgMy4wNTMgMCAwIDEtNi4xMDUgMCAzLjA1MyAzLjA1MyAwIDAgMSAzLjA1My0zLjA1M3pNMTkuMDk2IDMxLjgzMnYxMi43NmgzNy41OXYtMTIuNzZ6bTExLjA5MiAzLjMyOGEzLjA1MyAzLjA1MyAwIDAgMSAzLjA1MyAzLjA1MyAzLjA1MyAzLjA1MyAwIDAgMS02LjEwNSAwIDMuMDUzIDMuMDUzIDAgMCAxIDMuMDUzLTMuMDUzeiIgZmlsbD0iI2ZmZiIgcGFpbnQtb3JkZXI9Im5vcm1hbCIgY2xhc3M9IkIiLz48L3N2Zz4=;shadow=0;dashed=0;fontColor=#4277BB;spacingTop=3;" vertex="1" parent="1">
          <mxGeometry x="390" y="660" width="60" height="60" as="geometry" />
        </mxCell>
        <mxCell id="3Nzo_0Z1UaSwp5EyXcx5-74" value="Tree" style="ellipse;whiteSpace=wrap;html=1;shadow=0;fontFamily=Helvetica;fontSize=20;fontColor=#FFFFFF;align=center;strokeWidth=3;fillColor=#736ca8;strokeColor=none;" vertex="1" parent="1">
          <mxGeometry x="312.5" y="2898" width="120" height="120" as="geometry" />
        </mxCell>
        <mxCell id="3Nzo_0Z1UaSwp5EyXcx5-75" value="Organisation" style="rounded=1;fillColor=#a29dc5;strokeColor=none;strokeWidth=3;shadow=0;html=1;fontColor=#FFFFFF;" vertex="1" parent="1">
          <mxGeometry x="202.5" y="2798" width="120" height="40" as="geometry" />
        </mxCell>
        <mxCell id="3Nzo_0Z1UaSwp5EyXcx5-76" value="Oak" style="rounded=1;fillColor=#a29dc5;strokeColor=none;strokeWidth=3;shadow=0;html=1;fontColor=#FFFFFF;" vertex="1" parent="1">
          <mxGeometry x="310" y="2738" width="120" height="40" as="geometry" />
        </mxCell>
        <mxCell id="3Nzo_0Z1UaSwp5EyXcx5-77" value="Birch" style="rounded=1;fillColor=#a29dc5;strokeColor=none;strokeWidth=3;shadow=0;html=1;fontColor=#FFFFFF;" vertex="1" parent="1">
          <mxGeometry x="450" y="2748" width="120" height="40" as="geometry" />
        </mxCell>
        <mxCell id="3Nzo_0Z1UaSwp5EyXcx5-78" value="Silverfern" style="rounded=1;fillColor=#a29dc5;strokeColor=none;strokeWidth=3;shadow=0;html=1;fontColor=#FFFFFF;" vertex="1" parent="1">
          <mxGeometry x="515" y="2818" width="120" height="40" as="geometry" />
        </mxCell>
        <mxCell id="3Nzo_0Z1UaSwp5EyXcx5-79" value="Personal &#xa;Development" style="rounded=1;fillColor=#a29dc5;strokeColor=none;strokeWidth=3;shadow=0;html=1;fontColor=#FFFFFF;" vertex="1" parent="1">
          <mxGeometry x="540" y="2898" width="120" height="40" as="geometry" />
        </mxCell>
        <mxCell id="3Nzo_0Z1UaSwp5EyXcx5-80" value="Pine" style="rounded=1;fillColor=#a29dc5;strokeColor=none;strokeWidth=3;shadow=0;html=1;fontColor=#FFFFFF;" vertex="1" parent="1">
          <mxGeometry x="67.5" y="2818" width="120" height="40" as="geometry" />
        </mxCell>
        <mxCell id="3Nzo_0Z1UaSwp5EyXcx5-81" value="Lime" style="rounded=1;fillColor=#a29dc5;strokeColor=none;strokeWidth=3;shadow=0;html=1;fontColor=#FFFFFF;" vertex="1" parent="1">
          <mxGeometry x="472.5" y="3008" width="120" height="40" as="geometry" />
        </mxCell>
        <mxCell id="3Nzo_0Z1UaSwp5EyXcx5-82" value="Chestnut" style="rounded=1;fillColor=#a29dc5;strokeColor=none;strokeWidth=3;shadow=0;html=1;fontColor=#FFFFFF;" vertex="1" parent="1">
          <mxGeometry x="422.5" y="3068" width="120" height="40" as="geometry" />
        </mxCell>
        <mxCell id="3Nzo_0Z1UaSwp5EyXcx5-83" value="Beech" style="rounded=1;fillColor=#a29dc5;strokeColor=none;strokeWidth=3;shadow=0;html=1;fontColor=#FFFFFF;" vertex="1" parent="1">
          <mxGeometry x="282.5" y="3068" width="120" height="40" as="geometry" />
        </mxCell>
        <mxCell id="3Nzo_0Z1UaSwp5EyXcx5-84" value="Poplar" style="rounded=1;fillColor=#a29dc5;strokeColor=none;strokeWidth=3;shadow=0;html=1;fontColor=#FFFFFF;" vertex="1" parent="1">
          <mxGeometry x="142.5" y="3033" width="120" height="40" as="geometry" />
        </mxCell>
        <mxCell id="3Nzo_0Z1UaSwp5EyXcx5-85" value="" style="edgeStyle=none;endArrow=none;strokeWidth=3;strokeColor=#A29DC5;html=1;" edge="1" parent="1" source="3Nzo_0Z1UaSwp5EyXcx5-74" target="3Nzo_0Z1UaSwp5EyXcx5-75">
          <mxGeometry x="-1497.5" y="1873" width="100" height="100" as="geometry">
            <mxPoint x="-1497.5" y="1973" as="sourcePoint" />
            <mxPoint x="-1397.5" y="1873" as="targetPoint" />
          </mxGeometry>
        </mxCell>
        <mxCell id="3Nzo_0Z1UaSwp5EyXcx5-86" value="Acacia" style="rounded=1;fillColor=#a29dc5;strokeColor=none;strokeWidth=3;shadow=0;html=1;fontColor=#FFFFFF;" vertex="1" parent="1">
          <mxGeometry x="77.5" y="2908" width="120" height="40" as="geometry" />
        </mxCell>
        <mxCell id="3Nzo_0Z1UaSwp5EyXcx5-87" value="" style="edgeStyle=none;endArrow=none;strokeWidth=3;strokeColor=#A29DC5;html=1;" edge="1" parent="1" source="3Nzo_0Z1UaSwp5EyXcx5-74" target="3Nzo_0Z1UaSwp5EyXcx5-76">
          <mxGeometry x="-1497.5" y="1873" width="100" height="100" as="geometry">
            <mxPoint x="-1497.5" y="1973" as="sourcePoint" />
            <mxPoint x="-1397.5" y="1873" as="targetPoint" />
          </mxGeometry>
        </mxCell>
        <mxCell id="3Nzo_0Z1UaSwp5EyXcx5-88" value="" style="edgeStyle=none;endArrow=none;strokeWidth=3;strokeColor=#A29DC5;html=1;" edge="1" parent="1" source="3Nzo_0Z1UaSwp5EyXcx5-74" target="3Nzo_0Z1UaSwp5EyXcx5-77">
          <mxGeometry x="-1497.5" y="1873" width="100" height="100" as="geometry">
            <mxPoint x="-1497.5" y="1973" as="sourcePoint" />
            <mxPoint x="-1397.5" y="1873" as="targetPoint" />
          </mxGeometry>
        </mxCell>
        <mxCell id="3Nzo_0Z1UaSwp5EyXcx5-89" value="" style="edgeStyle=none;endArrow=none;strokeWidth=3;strokeColor=#A29DC5;html=1;" edge="1" parent="1" source="3Nzo_0Z1UaSwp5EyXcx5-74" target="3Nzo_0Z1UaSwp5EyXcx5-78">
          <mxGeometry x="-1497.5" y="1873" width="100" height="100" as="geometry">
            <mxPoint x="-1497.5" y="1973" as="sourcePoint" />
            <mxPoint x="-1397.5" y="1873" as="targetPoint" />
          </mxGeometry>
        </mxCell>
        <mxCell id="3Nzo_0Z1UaSwp5EyXcx5-90" value="" style="edgeStyle=none;endArrow=none;strokeWidth=3;strokeColor=#A29DC5;html=1;" edge="1" parent="1" source="3Nzo_0Z1UaSwp5EyXcx5-74" target="3Nzo_0Z1UaSwp5EyXcx5-79">
          <mxGeometry x="-1497.5" y="1873" width="100" height="100" as="geometry">
            <mxPoint x="-1497.5" y="1973" as="sourcePoint" />
            <mxPoint x="-1397.5" y="1873" as="targetPoint" />
          </mxGeometry>
        </mxCell>
        <mxCell id="3Nzo_0Z1UaSwp5EyXcx5-91" value="" style="edgeStyle=none;endArrow=none;strokeWidth=3;strokeColor=#A29DC5;html=1;" edge="1" parent="1" source="3Nzo_0Z1UaSwp5EyXcx5-74" target="3Nzo_0Z1UaSwp5EyXcx5-80">
          <mxGeometry x="-1497.5" y="1873" width="100" height="100" as="geometry">
            <mxPoint x="-1497.5" y="1973" as="sourcePoint" />
            <mxPoint x="-1397.5" y="1873" as="targetPoint" />
          </mxGeometry>
        </mxCell>
        <mxCell id="3Nzo_0Z1UaSwp5EyXcx5-92" value="" style="edgeStyle=none;endArrow=none;strokeWidth=3;strokeColor=#A29DC5;html=1;" edge="1" parent="1" source="3Nzo_0Z1UaSwp5EyXcx5-74" target="3Nzo_0Z1UaSwp5EyXcx5-81">
          <mxGeometry x="-1497.5" y="1873" width="100" height="100" as="geometry">
            <mxPoint x="-1497.5" y="1973" as="sourcePoint" />
            <mxPoint x="-1397.5" y="1873" as="targetPoint" />
          </mxGeometry>
        </mxCell>
        <mxCell id="3Nzo_0Z1UaSwp5EyXcx5-93" value="" style="edgeStyle=none;endArrow=none;strokeWidth=3;strokeColor=#A29DC5;html=1;" edge="1" parent="1" source="3Nzo_0Z1UaSwp5EyXcx5-74" target="3Nzo_0Z1UaSwp5EyXcx5-82">
          <mxGeometry x="-1497.5" y="1873" width="100" height="100" as="geometry">
            <mxPoint x="-1497.5" y="1973" as="sourcePoint" />
            <mxPoint x="-1397.5" y="1873" as="targetPoint" />
          </mxGeometry>
        </mxCell>
        <mxCell id="3Nzo_0Z1UaSwp5EyXcx5-94" value="" style="edgeStyle=none;endArrow=none;strokeWidth=3;strokeColor=#A29DC5;html=1;" edge="1" parent="1" source="3Nzo_0Z1UaSwp5EyXcx5-74" target="3Nzo_0Z1UaSwp5EyXcx5-83">
          <mxGeometry x="-1497.5" y="1873" width="100" height="100" as="geometry">
            <mxPoint x="-1497.5" y="1973" as="sourcePoint" />
            <mxPoint x="-1397.5" y="1873" as="targetPoint" />
          </mxGeometry>
        </mxCell>
        <mxCell id="3Nzo_0Z1UaSwp5EyXcx5-95" value="" style="edgeStyle=none;endArrow=none;strokeWidth=3;strokeColor=#A29DC5;html=1;" edge="1" parent="1" source="3Nzo_0Z1UaSwp5EyXcx5-74" target="3Nzo_0Z1UaSwp5EyXcx5-84">
          <mxGeometry x="-1497.5" y="1873" width="100" height="100" as="geometry">
            <mxPoint x="-1497.5" y="1973" as="sourcePoint" />
            <mxPoint x="-1397.5" y="1873" as="targetPoint" />
          </mxGeometry>
        </mxCell>
        <mxCell id="3Nzo_0Z1UaSwp5EyXcx5-96" value="" style="edgeStyle=none;endArrow=none;strokeWidth=3;strokeColor=#A29DC5;html=1;" edge="1" parent="1" source="3Nzo_0Z1UaSwp5EyXcx5-74">
          <mxGeometry x="-1497.5" y="1873" width="100" height="100" as="geometry">
            <mxPoint x="-1497.5" y="1973" as="sourcePoint" />
            <mxPoint x="157.5" y="2989.2727272727275" as="targetPoint" />
          </mxGeometry>
        </mxCell>
        <mxCell id="3Nzo_0Z1UaSwp5EyXcx5-97" value="" style="edgeStyle=none;endArrow=none;strokeWidth=3;strokeColor=#A29DC5;html=1;" edge="1" parent="1" source="3Nzo_0Z1UaSwp5EyXcx5-74" target="3Nzo_0Z1UaSwp5EyXcx5-86">
          <mxGeometry x="-1497.5" y="1873" width="100" height="100" as="geometry">
            <mxPoint x="-1497.5" y="1973" as="sourcePoint" />
            <mxPoint x="-1397.5" y="1873" as="targetPoint" />
          </mxGeometry>
        </mxCell>
        <mxCell id="3Nzo_0Z1UaSwp5EyXcx5-98" style="edgeStyle=none;rounded=0;html=1;exitX=0.5;exitY=1;endArrow=none;endFill=0;jettySize=auto;orthogonalLoop=1;strokeColor=#736CA8;strokeWidth=2;fillColor=#64bbe2;fontSize=20;fontColor=#23445D;" edge="1" parent="1" source="3Nzo_0Z1UaSwp5EyXcx5-86" target="3Nzo_0Z1UaSwp5EyXcx5-86">
          <mxGeometry relative="1" as="geometry" />
        </mxCell>
        <mxCell id="3Nzo_0Z1UaSwp5EyXcx5-99" value="" style="fillColor=#AE4132;strokeColor=none;opacity=30;" vertex="1" parent="1">
          <mxGeometry x="747" y="3210" width="210" height="99.99999999999994" as="geometry" />
        </mxCell>
        <mxCell id="3Nzo_0Z1UaSwp5EyXcx5-100" value="" style="fillColor=#10739E;strokeColor=none;opacity=30;" vertex="1" parent="1">
          <mxGeometry x="97" y="3360" width="1470" height="99.99999999999994" as="geometry" />
        </mxCell>
        <mxCell id="3Nzo_0Z1UaSwp5EyXcx5-101" value="" style="fillColor=#F2931E;strokeColor=none;opacity=30;" vertex="1" parent="1">
          <mxGeometry x="1557" y="3740" width="150" height="270" as="geometry" />
        </mxCell>
        <mxCell id="3Nzo_0Z1UaSwp5EyXcx5-102" value="" style="fillColor=#F2931E;strokeColor=none;opacity=30;" vertex="1" parent="1">
          <mxGeometry x="967" y="3480" width="150" height="90" as="geometry" />
        </mxCell>
        <mxCell id="3Nzo_0Z1UaSwp5EyXcx5-103" value="" style="fillColor=#F2931E;strokeColor=none;opacity=30;" vertex="1" parent="1">
          <mxGeometry x="757" y="3740" width="150" height="270" as="geometry" />
        </mxCell>
        <mxCell id="3Nzo_0Z1UaSwp5EyXcx5-104" value="" style="fillColor=#F2931E;strokeColor=none;opacity=30;" vertex="1" parent="1">
          <mxGeometry x="227.00000000000009" y="3480" width="149.99999999999991" height="439.9999999999998" as="geometry" />
        </mxCell>
        <mxCell id="3Nzo_0Z1UaSwp5EyXcx5-105" value="" style="fillColor=#F2931E;strokeColor=none;opacity=30;" vertex="1" parent="1">
          <mxGeometry x="377" y="3570" width="1330" height="170" as="geometry" />
        </mxCell>
        <mxCell id="3Nzo_0Z1UaSwp5EyXcx5-106" value="" style="fillColor=#10739E;strokeColor=none;opacity=30;" vertex="1" parent="1">
          <mxGeometry x="1557" y="4020" width="150" height="80" as="geometry" />
        </mxCell>
        <mxCell id="3Nzo_0Z1UaSwp5EyXcx5-107" value="" style="fillColor=#10739E;strokeColor=none;opacity=30;" vertex="1" parent="1">
          <mxGeometry x="1207" y="3750" width="330" height="80" as="geometry" />
        </mxCell>
        <mxCell id="3Nzo_0Z1UaSwp5EyXcx5-108" value="" style="fillColor=#10739E;strokeColor=none;opacity=30;" vertex="1" parent="1">
          <mxGeometry x="756.9999999999999" y="4020" width="150" height="80" as="geometry" />
        </mxCell>
        <mxCell id="3Nzo_0Z1UaSwp5EyXcx5-109" value="" style="fillColor=#10739E;strokeColor=none;opacity=30;" vertex="1" parent="1">
          <mxGeometry x="407.00000000000006" y="3750" width="329.99999999999994" height="80" as="geometry" />
        </mxCell>
        <mxCell id="3Nzo_0Z1UaSwp5EyXcx5-110" value="" style="fillColor=#10739E;strokeColor=none;opacity=30;" vertex="1" parent="1">
          <mxGeometry x="226.99999999999997" y="3930" width="150" height="80" as="geometry" />
        </mxCell>
        <mxCell id="3Nzo_0Z1UaSwp5EyXcx5-111" value="" style="fillColor=#D9EAD3;strokeColor=none" vertex="1" parent="1">
          <mxGeometry x="47" y="3570" width="150" height="80" as="geometry" />
        </mxCell>
        <mxCell id="3Nzo_0Z1UaSwp5EyXcx5-112" value="" style="fillColor=#12AAB5;strokeColor=none;opacity=30;" vertex="1" parent="1">
          <mxGeometry x="1207" y="3480" width="500" height="80" as="geometry" />
        </mxCell>
        <mxCell id="3Nzo_0Z1UaSwp5EyXcx5-113" value="" style="fillColor=#12AAB5;strokeColor=none;opacity=30;" vertex="1" parent="1">
          <mxGeometry x="407" y="3480" width="500" height="80" as="geometry" />
        </mxCell>
        <mxCell id="3Nzo_0Z1UaSwp5EyXcx5-114" value="" style="fillColor=#12AAB5;strokeColor=none;opacity=30;" vertex="1" parent="1">
          <mxGeometry x="47.000000000000014" y="3480" width="150" height="80" as="geometry" />
        </mxCell>
        <mxCell id="3Nzo_0Z1UaSwp5EyXcx5-115" value="Head of Development" style="rounded=1;fillColor=#23445D;gradientColor=none;strokeColor=none;fontColor=#FFFFFF;fontStyle=1;fontFamily=Tahoma;fontSize=14" vertex="1" parent="1">
          <mxGeometry x="757" y="3220" width="190" height="80" as="geometry" />
        </mxCell>
        <mxCell id="3Nzo_0Z1UaSwp5EyXcx5-116" value="Training Department" style="rounded=1;fillColor=#23445D;gradientColor=none;strokeColor=none;fontColor=#FFFFFF;fontStyle=1;fontFamily=Tahoma;fontSize=14" vertex="1" parent="1">
          <mxGeometry x="1361.9999999999998" y="3370" width="190" height="80" as="geometry" />
        </mxCell>
        <mxCell id="3Nzo_0Z1UaSwp5EyXcx5-117" value="" style="edgeStyle=elbowEdgeStyle;elbow=vertical;strokeWidth=2;rounded=0" edge="1" parent="1" source="3Nzo_0Z1UaSwp5EyXcx5-115" target="3Nzo_0Z1UaSwp5EyXcx5-116">
          <mxGeometry x="337" y="3250" width="100" height="100" as="geometry">
            <mxPoint x="337" y="3350" as="sourcePoint" />
            <mxPoint x="437" y="3250" as="targetPoint" />
          </mxGeometry>
        </mxCell>
        <mxCell id="3Nzo_0Z1UaSwp5EyXcx5-118" value="Technical Support" style="rounded=1;fillColor=#23445D;gradientColor=none;strokeColor=none;fontColor=#FFFFFF;fontStyle=1;fontFamily=Tahoma;fontSize=14" vertex="1" parent="1">
          <mxGeometry x="947" y="3370" width="190" height="80" as="geometry" />
        </mxCell>
        <mxCell id="3Nzo_0Z1UaSwp5EyXcx5-119" value="Research and &#xa;Development" style="rounded=1;fillColor=#23445D;gradientColor=none;strokeColor=none;fontColor=#FFFFFF;fontStyle=1;fontFamily=Tahoma;fontSize=14" vertex="1" parent="1">
          <mxGeometry x="561.9999999999999" y="3370" width="190" height="80" as="geometry" />
        </mxCell>
        <mxCell id="3Nzo_0Z1UaSwp5EyXcx5-120" value="Human Resources" style="rounded=1;fillColor=#23445D;gradientColor=none;strokeColor=none;fontColor=#FFFFFF;fontStyle=1;fontFamily=Tahoma;fontSize=14" vertex="1" parent="1">
          <mxGeometry x="107" y="3370" width="190" height="80" as="geometry" />
        </mxCell>
        <mxCell id="3Nzo_0Z1UaSwp5EyXcx5-121" value="Regular Report" style="rounded=1;fillColor=#23445D;gradientColor=none;strokeColor=none;fontColor=#FFFFFF;fontStyle=1;fontFamily=Tahoma;fontSize=14" vertex="1" parent="1">
          <mxGeometry x="57" y="3490" width="130" height="60" as="geometry" />
        </mxCell>
        <mxCell id="3Nzo_0Z1UaSwp5EyXcx5-122" value="Data Collection" style="rounded=1;fillColor=#23445D;gradientColor=none;strokeColor=none;fontColor=#FFFFFF;fontStyle=1;fontFamily=Tahoma;fontSize=14" vertex="1" parent="1">
          <mxGeometry x="57" y="3580" width="130" height="60" as="geometry" />
        </mxCell>
        <mxCell id="3Nzo_0Z1UaSwp5EyXcx5-123" value="Programming" style="rounded=1;fillColor=#23445D;gradientColor=none;strokeColor=none;fontColor=#FFFFFF;fontStyle=1;fontFamily=Tahoma;fontSize=14" vertex="1" parent="1">
          <mxGeometry x="237" y="3490" width="130" height="60" as="geometry" />
        </mxCell>
        <mxCell id="3Nzo_0Z1UaSwp5EyXcx5-124" value="HTTP" style="rounded=1;fillColor=#23445D;gradientColor=none;strokeColor=none;fontColor=#FFFFFF;fontStyle=1;fontFamily=Tahoma;fontSize=14" vertex="1" parent="1">
          <mxGeometry x="237" y="3580" width="130" height="60" as="geometry" />
        </mxCell>
        <mxCell id="3Nzo_0Z1UaSwp5EyXcx5-125" value="HTS" style="rounded=1;fillColor=#23445D;gradientColor=none;strokeColor=none;fontColor=#FFFFFF;fontStyle=1;fontFamily=Tahoma;fontSize=14" vertex="1" parent="1">
          <mxGeometry x="237" y="3670" width="130" height="60" as="geometry" />
        </mxCell>
        <mxCell id="3Nzo_0Z1UaSwp5EyXcx5-126" value="CVS" style="rounded=1;fillColor=#23445D;gradientColor=none;strokeColor=none;fontColor=#FFFFFF;fontStyle=1;fontFamily=Tahoma;fontSize=14" vertex="1" parent="1">
          <mxGeometry x="237" y="3760" width="130" height="60" as="geometry" />
        </mxCell>
        <mxCell id="3Nzo_0Z1UaSwp5EyXcx5-127" value="Client / Server" style="rounded=1;fillColor=#23445D;gradientColor=none;strokeColor=none;fontColor=#FFFFFF;fontStyle=1;fontFamily=Tahoma;fontSize=14" vertex="1" parent="1">
          <mxGeometry x="237" y="3850" width="130" height="60" as="geometry" />
        </mxCell>
        <mxCell id="3Nzo_0Z1UaSwp5EyXcx5-128" value="Data Collection" style="rounded=1;fillColor=#23445D;gradientColor=none;strokeColor=none;fontColor=#FFFFFF;fontStyle=1;fontFamily=Tahoma;fontSize=14" vertex="1" parent="1">
          <mxGeometry x="237" y="3940" width="130" height="60" as="geometry" />
        </mxCell>
        <mxCell id="3Nzo_0Z1UaSwp5EyXcx5-129" value="SI" style="rounded=1;fillColor=#23445D;gradientColor=none;strokeColor=none;fontColor=#FFFFFF;fontStyle=1;fontFamily=Tahoma;fontSize=14" vertex="1" parent="1">
          <mxGeometry x="417" y="3490" width="130" height="60" as="geometry" />
        </mxCell>
        <mxCell id="3Nzo_0Z1UaSwp5EyXcx5-130" value="Programming" style="rounded=1;fillColor=#23445D;gradientColor=none;strokeColor=none;fontColor=#FFFFFF;fontStyle=1;fontFamily=Tahoma;fontSize=14" vertex="1" parent="1">
          <mxGeometry x="417" y="3580" width="130" height="60" as="geometry" />
        </mxCell>
        <mxCell id="3Nzo_0Z1UaSwp5EyXcx5-131" value="Client / Server" style="rounded=1;fillColor=#23445D;gradientColor=none;strokeColor=none;fontColor=#FFFFFF;fontStyle=1;fontFamily=Tahoma;fontSize=14" vertex="1" parent="1">
          <mxGeometry x="417" y="3670" width="130" height="60" as="geometry" />
        </mxCell>
        <mxCell id="3Nzo_0Z1UaSwp5EyXcx5-132" value="Data Collection" style="rounded=1;fillColor=#23445D;gradientColor=none;strokeColor=none;fontColor=#FFFFFF;fontStyle=1;fontFamily=Tahoma;fontSize=14" vertex="1" parent="1">
          <mxGeometry x="417" y="3760" width="130" height="60" as="geometry" />
        </mxCell>
        <mxCell id="3Nzo_0Z1UaSwp5EyXcx5-133" value="SSI" style="rounded=1;fillColor=#23445D;gradientColor=none;strokeColor=none;fontColor=#FFFFFF;fontStyle=1;fontFamily=Tahoma;fontSize=14" vertex="1" parent="1">
          <mxGeometry x="592" y="3490" width="130" height="60" as="geometry" />
        </mxCell>
        <mxCell id="3Nzo_0Z1UaSwp5EyXcx5-134" value="Programming" style="rounded=1;fillColor=#23445D;gradientColor=none;strokeColor=none;fontColor=#FFFFFF;fontStyle=1;fontFamily=Tahoma;fontSize=14" vertex="1" parent="1">
          <mxGeometry x="592" y="3580" width="130" height="60" as="geometry" />
        </mxCell>
        <mxCell id="3Nzo_0Z1UaSwp5EyXcx5-135" value="Client / Server" style="rounded=1;fillColor=#23445D;gradientColor=none;strokeColor=none;fontColor=#FFFFFF;fontStyle=1;fontFamily=Tahoma;fontSize=14" vertex="1" parent="1">
          <mxGeometry x="592" y="3670" width="130" height="60" as="geometry" />
        </mxCell>
        <mxCell id="3Nzo_0Z1UaSwp5EyXcx5-136" value="Data Collection" style="rounded=1;fillColor=#23445D;gradientColor=none;strokeColor=none;fontColor=#FFFFFF;fontStyle=1;fontFamily=Tahoma;fontSize=14" vertex="1" parent="1">
          <mxGeometry x="592" y="3760" width="130" height="60" as="geometry" />
        </mxCell>
        <mxCell id="3Nzo_0Z1UaSwp5EyXcx5-137" value="XMI" style="rounded=1;fillColor=#23445D;gradientColor=none;strokeColor=none;fontColor=#FFFFFF;fontStyle=1;fontFamily=Tahoma;fontSize=14" vertex="1" parent="1">
          <mxGeometry x="767" y="3490" width="130" height="60" as="geometry" />
        </mxCell>
        <mxCell id="3Nzo_0Z1UaSwp5EyXcx5-138" value="Programming" style="rounded=1;fillColor=#23445D;gradientColor=none;strokeColor=none;fontColor=#FFFFFF;fontStyle=1;fontFamily=Tahoma;fontSize=14" vertex="1" parent="1">
          <mxGeometry x="767" y="3580" width="130" height="60" as="geometry" />
        </mxCell>
        <mxCell id="3Nzo_0Z1UaSwp5EyXcx5-139" value="HTTP" style="rounded=1;fillColor=#23445D;gradientColor=none;strokeColor=none;fontColor=#FFFFFF;fontStyle=1;fontFamily=Tahoma;fontSize=14" vertex="1" parent="1">
          <mxGeometry x="767" y="3670" width="130" height="60" as="geometry" />
        </mxCell>
        <mxCell id="3Nzo_0Z1UaSwp5EyXcx5-140" value="HTS" style="rounded=1;fillColor=#23445D;gradientColor=none;strokeColor=none;fontColor=#FFFFFF;fontStyle=1;fontFamily=Tahoma;fontSize=14" vertex="1" parent="1">
          <mxGeometry x="767" y="3760" width="130" height="60" as="geometry" />
        </mxCell>
        <mxCell id="3Nzo_0Z1UaSwp5EyXcx5-141" value="CVS" style="rounded=1;fillColor=#23445D;gradientColor=none;strokeColor=none;fontColor=#FFFFFF;fontStyle=1;fontFamily=Tahoma;fontSize=14" vertex="1" parent="1">
          <mxGeometry x="767" y="3850" width="130" height="60" as="geometry" />
        </mxCell>
        <mxCell id="3Nzo_0Z1UaSwp5EyXcx5-142" value="Client / Server" style="rounded=1;fillColor=#23445D;gradientColor=none;strokeColor=none;fontColor=#FFFFFF;fontStyle=1;fontFamily=Tahoma;fontSize=14" vertex="1" parent="1">
          <mxGeometry x="767" y="3940" width="130" height="60" as="geometry" />
        </mxCell>
        <mxCell id="3Nzo_0Z1UaSwp5EyXcx5-143" value="Data Collection" style="rounded=1;fillColor=#23445D;gradientColor=none;strokeColor=none;fontColor=#FFFFFF;fontStyle=1;fontFamily=Tahoma;fontSize=14" vertex="1" parent="1">
          <mxGeometry x="767" y="4030" width="130" height="60" as="geometry" />
        </mxCell>
        <mxCell id="3Nzo_0Z1UaSwp5EyXcx5-144" value="FAQ" style="rounded=1;fillColor=#23445D;gradientColor=none;strokeColor=none;fontColor=#FFFFFF;fontStyle=1;fontFamily=Tahoma;fontSize=14" vertex="1" parent="1">
          <mxGeometry x="977" y="3490" width="130" height="60" as="geometry" />
        </mxCell>
        <mxCell id="3Nzo_0Z1UaSwp5EyXcx5-145" value="Know Issues" style="rounded=1;fillColor=#23445D;gradientColor=none;strokeColor=none;fontColor=#FFFFFF;fontStyle=1;fontFamily=Tahoma;fontSize=14" vertex="1" parent="1">
          <mxGeometry x="977" y="3580" width="130" height="60" as="geometry" />
        </mxCell>
        <mxCell id="3Nzo_0Z1UaSwp5EyXcx5-146" value="Knowhow" style="rounded=1;fillColor=#23445D;gradientColor=none;strokeColor=none;fontColor=#FFFFFF;fontStyle=1;fontFamily=Tahoma;fontSize=14" vertex="1" parent="1">
          <mxGeometry x="977" y="3670" width="130" height="60" as="geometry" />
        </mxCell>
        <mxCell id="3Nzo_0Z1UaSwp5EyXcx5-147" value="SI" style="rounded=1;fillColor=#23445D;gradientColor=none;strokeColor=none;fontColor=#FFFFFF;fontStyle=1;fontFamily=Tahoma;fontSize=14" vertex="1" parent="1">
          <mxGeometry x="1217" y="3490" width="130" height="60" as="geometry" />
        </mxCell>
        <mxCell id="3Nzo_0Z1UaSwp5EyXcx5-148" value="Programming" style="rounded=1;fillColor=#23445D;gradientColor=none;strokeColor=none;fontColor=#FFFFFF;fontStyle=1;fontFamily=Tahoma;fontSize=14" vertex="1" parent="1">
          <mxGeometry x="1217" y="3580" width="130" height="60" as="geometry" />
        </mxCell>
        <mxCell id="3Nzo_0Z1UaSwp5EyXcx5-149" value="Client / Server" style="rounded=1;fillColor=#23445D;gradientColor=none;strokeColor=none;fontColor=#FFFFFF;fontStyle=1;fontFamily=Tahoma;fontSize=14" vertex="1" parent="1">
          <mxGeometry x="1217" y="3670" width="130" height="60" as="geometry" />
        </mxCell>
        <mxCell id="3Nzo_0Z1UaSwp5EyXcx5-150" value="Data Collection" style="rounded=1;fillColor=#23445D;gradientColor=none;strokeColor=none;fontColor=#FFFFFF;fontStyle=1;fontFamily=Tahoma;fontSize=14" vertex="1" parent="1">
          <mxGeometry x="1217" y="3760" width="130" height="60" as="geometry" />
        </mxCell>
        <mxCell id="3Nzo_0Z1UaSwp5EyXcx5-151" value="SSI" style="rounded=1;fillColor=#23445D;gradientColor=none;strokeColor=none;fontColor=#FFFFFF;fontStyle=1;fontFamily=Tahoma;fontSize=14" vertex="1" parent="1">
          <mxGeometry x="1392" y="3490" width="130" height="60" as="geometry" />
        </mxCell>
        <mxCell id="3Nzo_0Z1UaSwp5EyXcx5-152" value="Programming" style="rounded=1;fillColor=#23445D;gradientColor=none;strokeColor=none;fontColor=#FFFFFF;fontStyle=1;fontFamily=Tahoma;fontSize=14" vertex="1" parent="1">
          <mxGeometry x="1392" y="3580" width="130" height="60" as="geometry" />
        </mxCell>
        <mxCell id="3Nzo_0Z1UaSwp5EyXcx5-153" value="Client / Server" style="rounded=1;fillColor=#23445D;gradientColor=none;strokeColor=none;fontColor=#FFFFFF;fontStyle=1;fontFamily=Tahoma;fontSize=14" vertex="1" parent="1">
          <mxGeometry x="1392" y="3670" width="130" height="60" as="geometry" />
        </mxCell>
        <mxCell id="3Nzo_0Z1UaSwp5EyXcx5-154" value="Data Collection" style="rounded=1;fillColor=#23445D;gradientColor=none;strokeColor=none;fontColor=#FFFFFF;fontStyle=1;fontFamily=Tahoma;fontSize=14" vertex="1" parent="1">
          <mxGeometry x="1392" y="3760" width="130" height="60" as="geometry" />
        </mxCell>
        <mxCell id="3Nzo_0Z1UaSwp5EyXcx5-155" value="XMI" style="rounded=1;fillColor=#23445D;gradientColor=none;strokeColor=none;fontColor=#FFFFFF;fontStyle=1;fontFamily=Tahoma;fontSize=14" vertex="1" parent="1">
          <mxGeometry x="1567" y="3490" width="130" height="60" as="geometry" />
        </mxCell>
        <mxCell id="3Nzo_0Z1UaSwp5EyXcx5-156" value="Programming" style="rounded=1;fillColor=#23445D;gradientColor=none;strokeColor=none;fontColor=#FFFFFF;fontStyle=1;fontFamily=Tahoma;fontSize=14" vertex="1" parent="1">
          <mxGeometry x="1567" y="3580" width="130" height="60" as="geometry" />
        </mxCell>
        <mxCell id="3Nzo_0Z1UaSwp5EyXcx5-157" value="HTTP" style="rounded=1;fillColor=#23445D;gradientColor=none;strokeColor=none;fontColor=#FFFFFF;fontStyle=1;fontFamily=Tahoma;fontSize=14" vertex="1" parent="1">
          <mxGeometry x="1567" y="3670" width="130" height="60" as="geometry" />
        </mxCell>
        <mxCell id="3Nzo_0Z1UaSwp5EyXcx5-158" value="HTS" style="rounded=1;fillColor=#23445D;gradientColor=none;strokeColor=none;fontColor=#FFFFFF;fontStyle=1;fontFamily=Tahoma;fontSize=14" vertex="1" parent="1">
          <mxGeometry x="1567" y="3760" width="130" height="60" as="geometry" />
        </mxCell>
        <mxCell id="3Nzo_0Z1UaSwp5EyXcx5-159" value="CVS" style="rounded=1;fillColor=#23445D;gradientColor=none;strokeColor=none;fontColor=#FFFFFF;fontStyle=1;fontFamily=Tahoma;fontSize=14" vertex="1" parent="1">
          <mxGeometry x="1567" y="3850" width="130" height="60" as="geometry" />
        </mxCell>
        <mxCell id="3Nzo_0Z1UaSwp5EyXcx5-160" value="Client / Server" style="rounded=1;fillColor=#23445D;gradientColor=none;strokeColor=none;fontColor=#FFFFFF;fontStyle=1;fontFamily=Tahoma;fontSize=14" vertex="1" parent="1">
          <mxGeometry x="1567" y="3940" width="130" height="60" as="geometry" />
        </mxCell>
        <mxCell id="3Nzo_0Z1UaSwp5EyXcx5-161" value="Data Collection" style="rounded=1;fillColor=#23445D;gradientColor=none;strokeColor=none;fontColor=#FFFFFF;fontStyle=1;fontFamily=Tahoma;fontSize=14" vertex="1" parent="1">
          <mxGeometry x="1567" y="4030" width="130" height="60" as="geometry" />
        </mxCell>
        <mxCell id="3Nzo_0Z1UaSwp5EyXcx5-162" value="" style="edgeStyle=elbowEdgeStyle;elbow=vertical;strokeWidth=2;rounded=0" edge="1" parent="1" source="3Nzo_0Z1UaSwp5EyXcx5-115" target="3Nzo_0Z1UaSwp5EyXcx5-119">
          <mxGeometry x="347" y="3260" width="100" height="100" as="geometry">
            <mxPoint x="861.9999999999999" y="3310" as="sourcePoint" />
            <mxPoint x="1466.9999999999998" y="3380" as="targetPoint" />
          </mxGeometry>
        </mxCell>
        <mxCell id="3Nzo_0Z1UaSwp5EyXcx5-163" value="" style="edgeStyle=elbowEdgeStyle;elbow=vertical;strokeWidth=2;rounded=0" edge="1" parent="1" source="3Nzo_0Z1UaSwp5EyXcx5-115" target="3Nzo_0Z1UaSwp5EyXcx5-120">
          <mxGeometry x="-23" y="3170" width="100" height="100" as="geometry">
            <mxPoint x="-23" y="3270" as="sourcePoint" />
            <mxPoint x="77" y="3170" as="targetPoint" />
          </mxGeometry>
        </mxCell>
        <mxCell id="3Nzo_0Z1UaSwp5EyXcx5-164" value="" style="edgeStyle=elbowEdgeStyle;elbow=vertical;strokeWidth=2;rounded=0" edge="1" parent="1" source="3Nzo_0Z1UaSwp5EyXcx5-120" target="3Nzo_0Z1UaSwp5EyXcx5-121">
          <mxGeometry x="-23" y="3170" width="100" height="100" as="geometry">
            <mxPoint x="-23" y="3270" as="sourcePoint" />
            <mxPoint x="77" y="3170" as="targetPoint" />
          </mxGeometry>
        </mxCell>
        <mxCell id="3Nzo_0Z1UaSwp5EyXcx5-165" value="" style="edgeStyle=elbowEdgeStyle;elbow=horizontal;strokeWidth=2;rounded=0" edge="1" parent="1" source="3Nzo_0Z1UaSwp5EyXcx5-120" target="3Nzo_0Z1UaSwp5EyXcx5-123">
          <mxGeometry x="-23" y="3170" width="100" height="100" as="geometry">
            <mxPoint x="-23" y="3270" as="sourcePoint" />
            <mxPoint x="77" y="3170" as="targetPoint" />
            <Array as="points">
              <mxPoint x="202" y="3470" />
            </Array>
          </mxGeometry>
        </mxCell>
        <mxCell id="3Nzo_0Z1UaSwp5EyXcx5-166" value="" style="edgeStyle=elbowEdgeStyle;elbow=horizontal;strokeWidth=2;rounded=0" edge="1" parent="1" source="3Nzo_0Z1UaSwp5EyXcx5-120" target="3Nzo_0Z1UaSwp5EyXcx5-124">
          <mxGeometry x="-23" y="3170" width="100" height="100" as="geometry">
            <mxPoint x="-23" y="3270" as="sourcePoint" />
            <mxPoint x="77" y="3170" as="targetPoint" />
            <Array as="points">
              <mxPoint x="202" y="3510" />
            </Array>
          </mxGeometry>
        </mxCell>
        <mxCell id="3Nzo_0Z1UaSwp5EyXcx5-167" value="" style="edgeStyle=elbowEdgeStyle;elbow=horizontal;strokeWidth=2;rounded=0" edge="1" parent="1" source="3Nzo_0Z1UaSwp5EyXcx5-120" target="3Nzo_0Z1UaSwp5EyXcx5-125">
          <mxGeometry x="-23" y="3170" width="100" height="100" as="geometry">
            <mxPoint x="-23" y="3270" as="sourcePoint" />
            <mxPoint x="77" y="3170" as="targetPoint" />
            <Array as="points">
              <mxPoint x="202" y="3560" />
            </Array>
          </mxGeometry>
        </mxCell>
        <mxCell id="3Nzo_0Z1UaSwp5EyXcx5-168" value="" style="edgeStyle=elbowEdgeStyle;elbow=horizontal;strokeWidth=2;rounded=0" edge="1" parent="1" source="3Nzo_0Z1UaSwp5EyXcx5-120" target="3Nzo_0Z1UaSwp5EyXcx5-126">
          <mxGeometry x="-23" y="3170" width="100" height="100" as="geometry">
            <mxPoint x="-23" y="3270" as="sourcePoint" />
            <mxPoint x="77" y="3170" as="targetPoint" />
            <Array as="points">
              <mxPoint x="202" y="3610" />
            </Array>
          </mxGeometry>
        </mxCell>
        <mxCell id="3Nzo_0Z1UaSwp5EyXcx5-169" value="" style="edgeStyle=elbowEdgeStyle;elbow=horizontal;strokeWidth=2;rounded=0" edge="1" parent="1" source="3Nzo_0Z1UaSwp5EyXcx5-120" target="3Nzo_0Z1UaSwp5EyXcx5-127">
          <mxGeometry x="-23" y="3170" width="100" height="100" as="geometry">
            <mxPoint x="-23" y="3270" as="sourcePoint" />
            <mxPoint x="77" y="3170" as="targetPoint" />
            <Array as="points">
              <mxPoint x="202" y="3650" />
            </Array>
          </mxGeometry>
        </mxCell>
        <mxCell id="3Nzo_0Z1UaSwp5EyXcx5-170" value="" style="edgeStyle=elbowEdgeStyle;elbow=horizontal;strokeWidth=2;rounded=0" edge="1" parent="1" source="3Nzo_0Z1UaSwp5EyXcx5-120" target="3Nzo_0Z1UaSwp5EyXcx5-128">
          <mxGeometry x="-23" y="3170" width="100" height="100" as="geometry">
            <mxPoint x="-23" y="3270" as="sourcePoint" />
            <mxPoint x="77" y="3170" as="targetPoint" />
            <Array as="points">
              <mxPoint x="202" y="3700" />
            </Array>
          </mxGeometry>
        </mxCell>
        <mxCell id="3Nzo_0Z1UaSwp5EyXcx5-171" value="" style="edgeStyle=elbowEdgeStyle;elbow=horizontal;strokeWidth=2;rounded=0" edge="1" parent="1" source="3Nzo_0Z1UaSwp5EyXcx5-129" target="3Nzo_0Z1UaSwp5EyXcx5-130">
          <mxGeometry x="-23" y="3170" width="100" height="100" as="geometry">
            <mxPoint x="-23" y="3270" as="sourcePoint" />
            <mxPoint x="77" y="3170" as="targetPoint" />
            <Array as="points">
              <mxPoint x="397" y="3570" />
            </Array>
          </mxGeometry>
        </mxCell>
        <mxCell id="3Nzo_0Z1UaSwp5EyXcx5-172" value="" style="edgeStyle=elbowEdgeStyle;elbow=horizontal;strokeWidth=2;rounded=0" edge="1" parent="1" source="3Nzo_0Z1UaSwp5EyXcx5-129" target="3Nzo_0Z1UaSwp5EyXcx5-131">
          <mxGeometry x="-23" y="3170" width="100" height="100" as="geometry">
            <mxPoint x="-23" y="3270" as="sourcePoint" />
            <mxPoint x="77" y="3170" as="targetPoint" />
            <Array as="points">
              <mxPoint x="397" y="3610" />
            </Array>
          </mxGeometry>
        </mxCell>
        <mxCell id="3Nzo_0Z1UaSwp5EyXcx5-173" value="" style="edgeStyle=elbowEdgeStyle;elbow=horizontal;strokeWidth=2;rounded=0" edge="1" parent="1" source="3Nzo_0Z1UaSwp5EyXcx5-129" target="3Nzo_0Z1UaSwp5EyXcx5-132">
          <mxGeometry x="-23" y="3170" width="100" height="100" as="geometry">
            <mxPoint x="-23" y="3270" as="sourcePoint" />
            <mxPoint x="77" y="3170" as="targetPoint" />
            <Array as="points">
              <mxPoint x="397" y="3650" />
            </Array>
          </mxGeometry>
        </mxCell>
        <mxCell id="3Nzo_0Z1UaSwp5EyXcx5-174" value="" style="edgeStyle=elbowEdgeStyle;elbow=horizontal;strokeWidth=2;rounded=0" edge="1" parent="1" source="3Nzo_0Z1UaSwp5EyXcx5-133" target="3Nzo_0Z1UaSwp5EyXcx5-134">
          <mxGeometry x="-23" y="3170" width="100" height="100" as="geometry">
            <mxPoint x="-23" y="3270" as="sourcePoint" />
            <mxPoint x="77" y="3170" as="targetPoint" />
            <Array as="points">
              <mxPoint x="567" y="3570" />
            </Array>
          </mxGeometry>
        </mxCell>
        <mxCell id="3Nzo_0Z1UaSwp5EyXcx5-175" value="" style="edgeStyle=elbowEdgeStyle;elbow=horizontal;strokeWidth=2;rounded=0" edge="1" parent="1" source="3Nzo_0Z1UaSwp5EyXcx5-133" target="3Nzo_0Z1UaSwp5EyXcx5-135">
          <mxGeometry x="-23" y="3170" width="100" height="100" as="geometry">
            <mxPoint x="-23" y="3270" as="sourcePoint" />
            <mxPoint x="77" y="3170" as="targetPoint" />
            <Array as="points">
              <mxPoint x="567" y="3610" />
            </Array>
          </mxGeometry>
        </mxCell>
        <mxCell id="3Nzo_0Z1UaSwp5EyXcx5-176" value="" style="edgeStyle=elbowEdgeStyle;elbow=horizontal;strokeWidth=2;rounded=0" edge="1" parent="1" source="3Nzo_0Z1UaSwp5EyXcx5-133" target="3Nzo_0Z1UaSwp5EyXcx5-136">
          <mxGeometry x="-23" y="3170" width="100" height="100" as="geometry">
            <mxPoint x="-23" y="3270" as="sourcePoint" />
            <mxPoint x="77" y="3170" as="targetPoint" />
            <Array as="points">
              <mxPoint x="567" y="3650" />
            </Array>
          </mxGeometry>
        </mxCell>
        <mxCell id="3Nzo_0Z1UaSwp5EyXcx5-177" value="" style="edgeStyle=elbowEdgeStyle;elbow=horizontal;strokeWidth=2;rounded=0" edge="1" parent="1" source="3Nzo_0Z1UaSwp5EyXcx5-137" target="3Nzo_0Z1UaSwp5EyXcx5-138">
          <mxGeometry x="-23" y="3170" width="100" height="100" as="geometry">
            <mxPoint x="-23" y="3270" as="sourcePoint" />
            <mxPoint x="77" y="3170" as="targetPoint" />
            <Array as="points">
              <mxPoint x="747" y="3570" />
            </Array>
          </mxGeometry>
        </mxCell>
        <mxCell id="3Nzo_0Z1UaSwp5EyXcx5-178" value="" style="edgeStyle=elbowEdgeStyle;elbow=horizontal;strokeWidth=2;rounded=0" edge="1" parent="1" source="3Nzo_0Z1UaSwp5EyXcx5-137" target="3Nzo_0Z1UaSwp5EyXcx5-139">
          <mxGeometry x="-23" y="3170" width="100" height="100" as="geometry">
            <mxPoint x="-23" y="3270" as="sourcePoint" />
            <mxPoint x="77" y="3170" as="targetPoint" />
            <Array as="points">
              <mxPoint x="747" y="3610" />
            </Array>
          </mxGeometry>
        </mxCell>
        <mxCell id="3Nzo_0Z1UaSwp5EyXcx5-179" value="" style="edgeStyle=elbowEdgeStyle;elbow=horizontal;strokeWidth=2;rounded=0" edge="1" parent="1" source="3Nzo_0Z1UaSwp5EyXcx5-137" target="3Nzo_0Z1UaSwp5EyXcx5-140">
          <mxGeometry x="-23" y="3170" width="100" height="100" as="geometry">
            <mxPoint x="-23" y="3270" as="sourcePoint" />
            <mxPoint x="77" y="3170" as="targetPoint" />
            <Array as="points">
              <mxPoint x="747" y="3660" />
            </Array>
          </mxGeometry>
        </mxCell>
        <mxCell id="3Nzo_0Z1UaSwp5EyXcx5-180" value="" style="edgeStyle=elbowEdgeStyle;elbow=horizontal;strokeWidth=2;rounded=0" edge="1" parent="1" source="3Nzo_0Z1UaSwp5EyXcx5-137" target="3Nzo_0Z1UaSwp5EyXcx5-141">
          <mxGeometry x="-23" y="3170" width="100" height="100" as="geometry">
            <mxPoint x="-23" y="3270" as="sourcePoint" />
            <mxPoint x="77" y="3170" as="targetPoint" />
            <Array as="points">
              <mxPoint x="747" y="3700" />
            </Array>
          </mxGeometry>
        </mxCell>
        <mxCell id="3Nzo_0Z1UaSwp5EyXcx5-181" value="" style="edgeStyle=elbowEdgeStyle;elbow=horizontal;strokeWidth=2;rounded=0" edge="1" parent="1" source="3Nzo_0Z1UaSwp5EyXcx5-137" target="3Nzo_0Z1UaSwp5EyXcx5-142">
          <mxGeometry x="-23" y="3170" width="100" height="100" as="geometry">
            <mxPoint x="-23" y="3270" as="sourcePoint" />
            <mxPoint x="77" y="3170" as="targetPoint" />
            <Array as="points">
              <mxPoint x="747" y="3740" />
            </Array>
          </mxGeometry>
        </mxCell>
        <mxCell id="3Nzo_0Z1UaSwp5EyXcx5-182" value="" style="edgeStyle=elbowEdgeStyle;elbow=horizontal;strokeWidth=2;rounded=0" edge="1" parent="1" source="3Nzo_0Z1UaSwp5EyXcx5-137" target="3Nzo_0Z1UaSwp5EyXcx5-143">
          <mxGeometry x="-23" y="3170" width="100" height="100" as="geometry">
            <mxPoint x="-23" y="3270" as="sourcePoint" />
            <mxPoint x="77" y="3170" as="targetPoint" />
            <Array as="points">
              <mxPoint x="747" y="3790" />
            </Array>
          </mxGeometry>
        </mxCell>
        <mxCell id="3Nzo_0Z1UaSwp5EyXcx5-183" value="" style="edgeStyle=elbowEdgeStyle;elbow=horizontal;strokeWidth=2;rounded=0" edge="1" parent="1" source="3Nzo_0Z1UaSwp5EyXcx5-144" target="3Nzo_0Z1UaSwp5EyXcx5-145">
          <mxGeometry x="-23" y="3170" width="100" height="100" as="geometry">
            <mxPoint x="-23" y="3270" as="sourcePoint" />
            <mxPoint x="77" y="3170" as="targetPoint" />
            <Array as="points">
              <mxPoint x="957" y="3570" />
            </Array>
          </mxGeometry>
        </mxCell>
        <mxCell id="3Nzo_0Z1UaSwp5EyXcx5-184" value="" style="edgeStyle=elbowEdgeStyle;elbow=horizontal;strokeWidth=2;rounded=0" edge="1" parent="1" source="3Nzo_0Z1UaSwp5EyXcx5-144" target="3Nzo_0Z1UaSwp5EyXcx5-146">
          <mxGeometry x="-23" y="3170" width="100" height="100" as="geometry">
            <mxPoint x="-23" y="3270" as="sourcePoint" />
            <mxPoint x="77" y="3170" as="targetPoint" />
            <Array as="points">
              <mxPoint x="957" y="3620" />
            </Array>
          </mxGeometry>
        </mxCell>
        <mxCell id="3Nzo_0Z1UaSwp5EyXcx5-185" value="" style="edgeStyle=elbowEdgeStyle;elbow=horizontal;strokeWidth=2;rounded=0" edge="1" parent="1" source="3Nzo_0Z1UaSwp5EyXcx5-147" target="3Nzo_0Z1UaSwp5EyXcx5-148">
          <mxGeometry x="-23" y="3170" width="100" height="100" as="geometry">
            <mxPoint x="-23" y="3270" as="sourcePoint" />
            <mxPoint x="77" y="3170" as="targetPoint" />
            <Array as="points">
              <mxPoint x="1197" y="3580" />
            </Array>
          </mxGeometry>
        </mxCell>
        <mxCell id="3Nzo_0Z1UaSwp5EyXcx5-186" value="" style="edgeStyle=elbowEdgeStyle;elbow=horizontal;strokeWidth=2;rounded=0" edge="1" parent="1" source="3Nzo_0Z1UaSwp5EyXcx5-147" target="3Nzo_0Z1UaSwp5EyXcx5-149">
          <mxGeometry x="-23" y="3170" width="100" height="100" as="geometry">
            <mxPoint x="-23" y="3270" as="sourcePoint" />
            <mxPoint x="77" y="3170" as="targetPoint" />
            <Array as="points">
              <mxPoint x="1197" y="3610" />
            </Array>
          </mxGeometry>
        </mxCell>
        <mxCell id="3Nzo_0Z1UaSwp5EyXcx5-187" value="" style="edgeStyle=elbowEdgeStyle;elbow=horizontal;strokeWidth=2;rounded=0" edge="1" parent="1" source="3Nzo_0Z1UaSwp5EyXcx5-147" target="3Nzo_0Z1UaSwp5EyXcx5-150">
          <mxGeometry x="-23" y="3170" width="100" height="100" as="geometry">
            <mxPoint x="-23" y="3270" as="sourcePoint" />
            <mxPoint x="77" y="3170" as="targetPoint" />
            <Array as="points">
              <mxPoint x="1197" y="3660" />
            </Array>
          </mxGeometry>
        </mxCell>
        <mxCell id="3Nzo_0Z1UaSwp5EyXcx5-188" value="" style="edgeStyle=elbowEdgeStyle;elbow=horizontal;strokeWidth=2;rounded=0" edge="1" parent="1" source="3Nzo_0Z1UaSwp5EyXcx5-151" target="3Nzo_0Z1UaSwp5EyXcx5-152">
          <mxGeometry x="-23" y="3170" width="100" height="100" as="geometry">
            <mxPoint x="-23" y="3270" as="sourcePoint" />
            <mxPoint x="77" y="3170" as="targetPoint" />
            <Array as="points">
              <mxPoint x="1367" y="3570" />
            </Array>
          </mxGeometry>
        </mxCell>
        <mxCell id="3Nzo_0Z1UaSwp5EyXcx5-189" value="" style="edgeStyle=elbowEdgeStyle;elbow=horizontal;strokeWidth=2;rounded=0" edge="1" parent="1" source="3Nzo_0Z1UaSwp5EyXcx5-151" target="3Nzo_0Z1UaSwp5EyXcx5-153">
          <mxGeometry x="-23" y="3170" width="100" height="100" as="geometry">
            <mxPoint x="-23" y="3270" as="sourcePoint" />
            <mxPoint x="77" y="3170" as="targetPoint" />
            <Array as="points">
              <mxPoint x="1367" y="3630" />
            </Array>
          </mxGeometry>
        </mxCell>
        <mxCell id="3Nzo_0Z1UaSwp5EyXcx5-190" value="" style="edgeStyle=elbowEdgeStyle;elbow=horizontal;strokeWidth=2;rounded=0" edge="1" parent="1" source="3Nzo_0Z1UaSwp5EyXcx5-151" target="3Nzo_0Z1UaSwp5EyXcx5-154">
          <mxGeometry x="-23" y="3170" width="100" height="100" as="geometry">
            <mxPoint x="-23" y="3270" as="sourcePoint" />
            <mxPoint x="77" y="3170" as="targetPoint" />
            <Array as="points">
              <mxPoint x="1367" y="3660" />
            </Array>
          </mxGeometry>
        </mxCell>
        <mxCell id="3Nzo_0Z1UaSwp5EyXcx5-191" value="" style="edgeStyle=elbowEdgeStyle;elbow=horizontal;strokeWidth=2;rounded=0" edge="1" parent="1" source="3Nzo_0Z1UaSwp5EyXcx5-155" target="3Nzo_0Z1UaSwp5EyXcx5-156">
          <mxGeometry x="-23" y="3170" width="100" height="100" as="geometry">
            <mxPoint x="-23" y="3270" as="sourcePoint" />
            <mxPoint x="77" y="3170" as="targetPoint" />
            <Array as="points">
              <mxPoint x="1547" y="3570" />
            </Array>
          </mxGeometry>
        </mxCell>
        <mxCell id="3Nzo_0Z1UaSwp5EyXcx5-192" value="" style="edgeStyle=elbowEdgeStyle;elbow=horizontal;strokeWidth=2;rounded=0" edge="1" parent="1" source="3Nzo_0Z1UaSwp5EyXcx5-155" target="3Nzo_0Z1UaSwp5EyXcx5-157">
          <mxGeometry x="-23" y="3170" width="100" height="100" as="geometry">
            <mxPoint x="-23" y="3270" as="sourcePoint" />
            <mxPoint x="77" y="3170" as="targetPoint" />
            <Array as="points">
              <mxPoint x="1547" y="3610" />
            </Array>
          </mxGeometry>
        </mxCell>
        <mxCell id="3Nzo_0Z1UaSwp5EyXcx5-193" value="" style="edgeStyle=elbowEdgeStyle;elbow=horizontal;strokeWidth=2;rounded=0" edge="1" parent="1" source="3Nzo_0Z1UaSwp5EyXcx5-155" target="3Nzo_0Z1UaSwp5EyXcx5-158">
          <mxGeometry x="-23" y="3170" width="100" height="100" as="geometry">
            <mxPoint x="-23" y="3270" as="sourcePoint" />
            <mxPoint x="77" y="3170" as="targetPoint" />
            <Array as="points">
              <mxPoint x="1547" y="3660" />
            </Array>
          </mxGeometry>
        </mxCell>
        <mxCell id="3Nzo_0Z1UaSwp5EyXcx5-194" value="" style="edgeStyle=elbowEdgeStyle;elbow=horizontal;strokeWidth=2;rounded=0" edge="1" parent="1" source="3Nzo_0Z1UaSwp5EyXcx5-155" target="3Nzo_0Z1UaSwp5EyXcx5-159">
          <mxGeometry x="-23" y="3170" width="100" height="100" as="geometry">
            <mxPoint x="-23" y="3270" as="sourcePoint" />
            <mxPoint x="77" y="3170" as="targetPoint" />
            <Array as="points">
              <mxPoint x="1547" y="3710" />
            </Array>
          </mxGeometry>
        </mxCell>
        <mxCell id="3Nzo_0Z1UaSwp5EyXcx5-195" value="" style="edgeStyle=elbowEdgeStyle;elbow=horizontal;strokeWidth=2;rounded=0" edge="1" parent="1" source="3Nzo_0Z1UaSwp5EyXcx5-155" target="3Nzo_0Z1UaSwp5EyXcx5-160">
          <mxGeometry x="-23" y="3170" width="100" height="100" as="geometry">
            <mxPoint x="-23" y="3270" as="sourcePoint" />
            <mxPoint x="77" y="3170" as="targetPoint" />
            <Array as="points">
              <mxPoint x="1547" y="3760" />
            </Array>
          </mxGeometry>
        </mxCell>
        <mxCell id="3Nzo_0Z1UaSwp5EyXcx5-196" value="" style="edgeStyle=elbowEdgeStyle;elbow=horizontal;strokeWidth=2;rounded=0" edge="1" parent="1" source="3Nzo_0Z1UaSwp5EyXcx5-155" target="3Nzo_0Z1UaSwp5EyXcx5-161">
          <mxGeometry x="-23" y="3170" width="100" height="100" as="geometry">
            <mxPoint x="-23" y="3270" as="sourcePoint" />
            <mxPoint x="77" y="3170" as="targetPoint" />
            <Array as="points">
              <mxPoint x="1547" y="3800" />
            </Array>
          </mxGeometry>
        </mxCell>
        <mxCell id="3Nzo_0Z1UaSwp5EyXcx5-197" value="" style="edgeStyle=elbowEdgeStyle;elbow=vertical;strokeWidth=2;rounded=0" edge="1" parent="1" source="3Nzo_0Z1UaSwp5EyXcx5-119" target="3Nzo_0Z1UaSwp5EyXcx5-129">
          <mxGeometry x="-23" y="3170" width="100" height="100" as="geometry">
            <mxPoint x="-23" y="3270" as="sourcePoint" />
            <mxPoint x="77" y="3170" as="targetPoint" />
          </mxGeometry>
        </mxCell>
        <mxCell id="3Nzo_0Z1UaSwp5EyXcx5-198" value="" style="edgeStyle=elbowEdgeStyle;elbow=vertical;strokeWidth=2;rounded=0" edge="1" parent="1" source="3Nzo_0Z1UaSwp5EyXcx5-119" target="3Nzo_0Z1UaSwp5EyXcx5-133">
          <mxGeometry x="-23" y="3170" width="100" height="100" as="geometry">
            <mxPoint x="-23" y="3270" as="sourcePoint" />
            <mxPoint x="77" y="3170" as="targetPoint" />
          </mxGeometry>
        </mxCell>
        <mxCell id="3Nzo_0Z1UaSwp5EyXcx5-199" value="" style="edgeStyle=elbowEdgeStyle;elbow=vertical;strokeWidth=2;rounded=0" edge="1" parent="1" source="3Nzo_0Z1UaSwp5EyXcx5-119" target="3Nzo_0Z1UaSwp5EyXcx5-137">
          <mxGeometry x="-23" y="3170" width="100" height="100" as="geometry">
            <mxPoint x="-23" y="3270" as="sourcePoint" />
            <mxPoint x="77" y="3170" as="targetPoint" />
          </mxGeometry>
        </mxCell>
        <mxCell id="3Nzo_0Z1UaSwp5EyXcx5-200" value="" style="edgeStyle=elbowEdgeStyle;elbow=vertical;strokeWidth=2;rounded=0" edge="1" parent="1" source="3Nzo_0Z1UaSwp5EyXcx5-118" target="3Nzo_0Z1UaSwp5EyXcx5-144">
          <mxGeometry x="-23" y="3170" width="100" height="100" as="geometry">
            <mxPoint x="-23" y="3270" as="sourcePoint" />
            <mxPoint x="77" y="3170" as="targetPoint" />
          </mxGeometry>
        </mxCell>
        <mxCell id="3Nzo_0Z1UaSwp5EyXcx5-201" value="" style="edgeStyle=elbowEdgeStyle;elbow=vertical;strokeWidth=2;rounded=0" edge="1" parent="1" source="3Nzo_0Z1UaSwp5EyXcx5-116" target="3Nzo_0Z1UaSwp5EyXcx5-151">
          <mxGeometry x="-23" y="3170" width="100" height="100" as="geometry">
            <mxPoint x="-23" y="3270" as="sourcePoint" />
            <mxPoint x="77" y="3170" as="targetPoint" />
          </mxGeometry>
        </mxCell>
        <mxCell id="3Nzo_0Z1UaSwp5EyXcx5-202" value="" style="edgeStyle=elbowEdgeStyle;elbow=vertical;strokeWidth=2;rounded=0" edge="1" parent="1" source="3Nzo_0Z1UaSwp5EyXcx5-116" target="3Nzo_0Z1UaSwp5EyXcx5-147">
          <mxGeometry x="-23" y="3170" width="100" height="100" as="geometry">
            <mxPoint x="-23" y="3270" as="sourcePoint" />
            <mxPoint x="77" y="3170" as="targetPoint" />
          </mxGeometry>
        </mxCell>
        <mxCell id="3Nzo_0Z1UaSwp5EyXcx5-203" value="" style="edgeStyle=elbowEdgeStyle;elbow=vertical;strokeWidth=2;rounded=0" edge="1" parent="1" source="3Nzo_0Z1UaSwp5EyXcx5-116" target="3Nzo_0Z1UaSwp5EyXcx5-155">
          <mxGeometry x="-23" y="3170" width="100" height="100" as="geometry">
            <mxPoint x="-23" y="3270" as="sourcePoint" />
            <mxPoint x="77" y="3170" as="targetPoint" />
          </mxGeometry>
        </mxCell>
        <mxCell id="3Nzo_0Z1UaSwp5EyXcx5-204" value="" style="edgeStyle=elbowEdgeStyle;elbow=vertical;rounded=0;strokeWidth=2" edge="1" parent="1" source="3Nzo_0Z1UaSwp5EyXcx5-121" target="3Nzo_0Z1UaSwp5EyXcx5-122">
          <mxGeometry x="-23" y="3170" width="100" height="100" as="geometry">
            <mxPoint x="-23" y="3270" as="sourcePoint" />
            <mxPoint x="77" y="3170" as="targetPoint" />
          </mxGeometry>
        </mxCell>
        <mxCell id="3Nzo_0Z1UaSwp5EyXcx5-205" style="edgeStyle=none;rounded=0;orthogonalLoop=1;jettySize=auto;html=1;sourcePerimeterSpacing=5;endArrow=none;endFill=0;targetPerimeterSpacing=5;" edge="1" parent="1" source="3Nzo_0Z1UaSwp5EyXcx5-224" target="3Nzo_0Z1UaSwp5EyXcx5-234">
          <mxGeometry relative="1" as="geometry" />
        </mxCell>
        <mxCell id="3Nzo_0Z1UaSwp5EyXcx5-206" style="edgeStyle=none;rounded=0;orthogonalLoop=1;jettySize=auto;html=1;sourcePerimeterSpacing=5;endArrow=none;endFill=0;targetPerimeterSpacing=5;" edge="1" parent="1" source="3Nzo_0Z1UaSwp5EyXcx5-227" target="3Nzo_0Z1UaSwp5EyXcx5-234">
          <mxGeometry relative="1" as="geometry" />
        </mxCell>
        <mxCell id="3Nzo_0Z1UaSwp5EyXcx5-207" style="edgeStyle=none;rounded=0;orthogonalLoop=1;jettySize=auto;html=1;sourcePerimeterSpacing=5;endArrow=none;endFill=0;targetPerimeterSpacing=5;" edge="1" parent="1" source="3Nzo_0Z1UaSwp5EyXcx5-233" target="3Nzo_0Z1UaSwp5EyXcx5-229">
          <mxGeometry relative="1" as="geometry" />
        </mxCell>
        <mxCell id="3Nzo_0Z1UaSwp5EyXcx5-208" style="edgeStyle=none;rounded=0;orthogonalLoop=1;jettySize=auto;html=1;sourcePerimeterSpacing=5;endArrow=none;endFill=0;targetPerimeterSpacing=5;" edge="1" parent="1" source="3Nzo_0Z1UaSwp5EyXcx5-233" target="3Nzo_0Z1UaSwp5EyXcx5-225">
          <mxGeometry relative="1" as="geometry" />
        </mxCell>
        <mxCell id="3Nzo_0Z1UaSwp5EyXcx5-209" style="edgeStyle=none;rounded=0;orthogonalLoop=1;jettySize=auto;html=1;sourcePerimeterSpacing=5;endArrow=none;endFill=0;targetPerimeterSpacing=5;" edge="1" parent="1" source="3Nzo_0Z1UaSwp5EyXcx5-233" target="3Nzo_0Z1UaSwp5EyXcx5-235">
          <mxGeometry relative="1" as="geometry" />
        </mxCell>
        <mxCell id="3Nzo_0Z1UaSwp5EyXcx5-210" style="edgeStyle=none;rounded=0;orthogonalLoop=1;jettySize=auto;html=1;sourcePerimeterSpacing=5;endArrow=none;endFill=0;targetPerimeterSpacing=5;" edge="1" parent="1" source="3Nzo_0Z1UaSwp5EyXcx5-233" target="3Nzo_0Z1UaSwp5EyXcx5-228">
          <mxGeometry relative="1" as="geometry" />
        </mxCell>
        <mxCell id="3Nzo_0Z1UaSwp5EyXcx5-211" style="edgeStyle=none;rounded=0;orthogonalLoop=1;jettySize=auto;html=1;sourcePerimeterSpacing=5;endArrow=none;endFill=0;targetPerimeterSpacing=5;" edge="1" parent="1" source="3Nzo_0Z1UaSwp5EyXcx5-233" target="3Nzo_0Z1UaSwp5EyXcx5-226">
          <mxGeometry relative="1" as="geometry" />
        </mxCell>
        <mxCell id="3Nzo_0Z1UaSwp5EyXcx5-212" style="edgeStyle=none;rounded=0;orthogonalLoop=1;jettySize=auto;html=1;sourcePerimeterSpacing=5;endArrow=none;endFill=0;targetPerimeterSpacing=5;" edge="1" parent="1" source="3Nzo_0Z1UaSwp5EyXcx5-233" target="3Nzo_0Z1UaSwp5EyXcx5-241">
          <mxGeometry relative="1" as="geometry" />
        </mxCell>
        <mxCell id="3Nzo_0Z1UaSwp5EyXcx5-213" style="edgeStyle=none;rounded=0;orthogonalLoop=1;jettySize=auto;html=1;sourcePerimeterSpacing=5;endArrow=none;endFill=0;targetPerimeterSpacing=5;" edge="1" parent="1" source="3Nzo_0Z1UaSwp5EyXcx5-234" target="3Nzo_0Z1UaSwp5EyXcx5-233">
          <mxGeometry relative="1" as="geometry" />
        </mxCell>
        <mxCell id="3Nzo_0Z1UaSwp5EyXcx5-214" style="edgeStyle=none;rounded=0;orthogonalLoop=1;jettySize=auto;html=1;sourcePerimeterSpacing=5;endArrow=none;endFill=0;targetPerimeterSpacing=5;" edge="1" parent="1" source="3Nzo_0Z1UaSwp5EyXcx5-238" target="3Nzo_0Z1UaSwp5EyXcx5-234">
          <mxGeometry relative="1" as="geometry" />
        </mxCell>
        <mxCell id="3Nzo_0Z1UaSwp5EyXcx5-215" style="rounded=0;orthogonalLoop=1;jettySize=auto;html=1;endArrow=none;endFill=0;sourcePerimeterSpacing=5;targetPerimeterSpacing=5;" edge="1" parent="1" source="3Nzo_0Z1UaSwp5EyXcx5-239" target="3Nzo_0Z1UaSwp5EyXcx5-234">
          <mxGeometry relative="1" as="geometry" />
        </mxCell>
        <mxCell id="3Nzo_0Z1UaSwp5EyXcx5-216" style="edgeStyle=none;rounded=0;orthogonalLoop=1;jettySize=auto;html=1;sourcePerimeterSpacing=5;endArrow=none;endFill=0;targetPerimeterSpacing=5;" edge="1" parent="1" source="3Nzo_0Z1UaSwp5EyXcx5-240" target="3Nzo_0Z1UaSwp5EyXcx5-234">
          <mxGeometry relative="1" as="geometry" />
        </mxCell>
        <mxCell id="3Nzo_0Z1UaSwp5EyXcx5-217" style="edgeStyle=none;rounded=0;orthogonalLoop=1;jettySize=auto;html=1;sourcePerimeterSpacing=5;endArrow=none;endFill=0;targetPerimeterSpacing=5;" edge="1" parent="1" source="3Nzo_0Z1UaSwp5EyXcx5-241" target="3Nzo_0Z1UaSwp5EyXcx5-231">
          <mxGeometry relative="1" as="geometry" />
        </mxCell>
        <mxCell id="3Nzo_0Z1UaSwp5EyXcx5-218" style="edgeStyle=none;rounded=0;orthogonalLoop=1;jettySize=auto;html=1;sourcePerimeterSpacing=5;endArrow=none;endFill=0;targetPerimeterSpacing=5;" edge="1" parent="1" source="3Nzo_0Z1UaSwp5EyXcx5-241" target="3Nzo_0Z1UaSwp5EyXcx5-230">
          <mxGeometry relative="1" as="geometry" />
        </mxCell>
        <mxCell id="3Nzo_0Z1UaSwp5EyXcx5-219" style="edgeStyle=none;rounded=0;orthogonalLoop=1;jettySize=auto;html=1;sourcePerimeterSpacing=5;endArrow=none;endFill=0;targetPerimeterSpacing=5;" edge="1" parent="1" source="3Nzo_0Z1UaSwp5EyXcx5-241" target="3Nzo_0Z1UaSwp5EyXcx5-237">
          <mxGeometry relative="1" as="geometry" />
        </mxCell>
        <mxCell id="3Nzo_0Z1UaSwp5EyXcx5-220" style="edgeStyle=none;rounded=0;orthogonalLoop=1;jettySize=auto;html=1;sourcePerimeterSpacing=5;endArrow=none;endFill=0;targetPerimeterSpacing=5;" edge="1" parent="1" source="3Nzo_0Z1UaSwp5EyXcx5-241" target="3Nzo_0Z1UaSwp5EyXcx5-236">
          <mxGeometry relative="1" as="geometry" />
        </mxCell>
        <mxCell id="3Nzo_0Z1UaSwp5EyXcx5-221" style="edgeStyle=none;rounded=0;orthogonalLoop=1;jettySize=auto;html=1;sourcePerimeterSpacing=5;endArrow=none;endFill=0;targetPerimeterSpacing=5;" edge="1" parent="1" source="3Nzo_0Z1UaSwp5EyXcx5-241" target="3Nzo_0Z1UaSwp5EyXcx5-223">
          <mxGeometry relative="1" as="geometry" />
        </mxCell>
        <mxCell id="3Nzo_0Z1UaSwp5EyXcx5-222" style="edgeStyle=none;rounded=0;orthogonalLoop=1;jettySize=auto;html=1;sourcePerimeterSpacing=5;endArrow=none;endFill=0;targetPerimeterSpacing=5;" edge="1" parent="1" source="3Nzo_0Z1UaSwp5EyXcx5-241" target="3Nzo_0Z1UaSwp5EyXcx5-232">
          <mxGeometry relative="1" as="geometry" />
        </mxCell>
        <mxCell id="3Nzo_0Z1UaSwp5EyXcx5-223" value="Tape&#xa;Storage" style="shape=image;verticalLabelPosition=bottom;verticalAlign=top;imageAspect=0;aspect=fixed;image=data:image/svg+xml,PHN2ZyB4bWxucz0iaHR0cDovL3d3dy53My5vcmcvMjAwMC9zdmciIHZlcnNpb249IjEiIHZpZXdCb3g9IjAgMCA0OCA0OCIgZW5hYmxlLWJhY2tncm91bmQ9Im5ldyAwIDAgNDggNDgiPiYjeGE7ICAgIDxwYXRoIGZpbGw9IiM0Q0FGNTAiIGQ9Ik00OCwyNGMwLTYuMS00LjktMTEtMTEtMTFzLTExLDQuOS0xMSwxMWMwLDIuNywwLjksNS4xLDIuNSw3aC05YzEuNi0xLjksMi41LTQuMywyLjUtN2MwLTYuMS00LjktMTEtMTEtMTEgUzAsMTcuOSwwLDI0czQuOSwxMSwxMSwxMWgyN3YtMC4xQzQzLjYsMzQuNCw0OCwyOS43LDQ4LDI0eiBNNCwyNGMwLTMuOSwzLjEtNyw3LTdzNywzLjEsNyw3cy0zLjEsNy03LDdTNCwyNy45LDQsMjR6IE0zNywzMSBjLTMuOSwwLTctMy4xLTctN3MzLjEtNyw3LTdjMy45LDAsNywzLjEsNyw3UzQwLjksMzEsMzcsMzF6Ii8+JiN4YTs8L3N2Zz4=;labelBackgroundColor=#ffffff;" vertex="1" parent="1">
          <mxGeometry x="540" y="4608" width="48" height="48" as="geometry" />
        </mxCell>
        <mxCell id="3Nzo_0Z1UaSwp5EyXcx5-224" value="Mobile" style="shape=image;verticalLabelPosition=bottom;verticalAlign=top;imageAspect=0;aspect=fixed;image=data:image/svg+xml,PHN2ZyB4bWxucz0iaHR0cDovL3d3dy53My5vcmcvMjAwMC9zdmciIHZlcnNpb249IjEiIHZpZXdCb3g9IjAgMCA0OCA0OCIgZW5hYmxlLWJhY2tncm91bmQ9Im5ldyAwIDAgNDggNDgiPiYjeGE7ICAgIDxwYXRoIGZpbGw9IiMzNzQ3NEYiIGQ9Ik00LDM5VjdjMC0yLjIsMS44LTQsNC00aDIyYzIuMiwwLDQsMS44LDQsNHYzMmMwLDIuMi0xLjgsNC00LDRIOEM1LjgsNDMsNCw0MS4yLDQsMzl6Ii8+JiN4YTsgICAgPHBhdGggZmlsbD0iI0JCREVGQiIgZD0iTTMwLDZIOEM3LjQsNiw3LDYuNCw3LDd2MjljMCwwLjYsMC40LDEsMSwxaDIyYzAuNiwwLDEtMC40LDEtMVY3QzMxLDYuNCwzMC42LDYsMzAsNnoiLz4mI3hhOyAgICA8cmVjdCB4PSIxNSIgeT0iMzkiIGZpbGw9IiM3ODkwOUMiIHdpZHRoPSI2IiBoZWlnaHQ9IjIiLz4mI3hhOyAgICA8cGF0aCBmaWxsPSIjRTM4OTM5IiBkPSJNMjQsNDFWMTdjMC0yLjIsMS44LTQsNC00aDEyYzIuMiwwLDQsMS44LDQsNHYyNGMwLDIuMi0xLjgsNC00LDRIMjhDMjUuOCw0NSwyNCw0My4yLDI0LDQxeiIvPiYjeGE7ICAgIDxwYXRoIGZpbGw9IiNGRkYzRTAiIGQ9Ik00MCwxNkgyOGMtMC42LDAtMSwwLjQtMSwxdjIyYzAsMC42LDAuNCwxLDEsMWgxMmMwLjYsMCwxLTAuNCwxLTFWMTdDNDEsMTYuNCw0MC42LDE2LDQwLDE2eiIvPiYjeGE7ICAgIDxjaXJjbGUgZmlsbD0iI0E2NjQyQSIgY3g9IjM0IiBjeT0iNDIuNSIgcj0iMS41Ii8+JiN4YTs8L3N2Zz4=;labelBackgroundColor=#ffffff;" vertex="1" parent="1">
          <mxGeometry x="32" y="4382" width="48" height="48" as="geometry" />
        </mxCell>
        <mxCell id="3Nzo_0Z1UaSwp5EyXcx5-225" value="Chat" style="shape=image;verticalLabelPosition=bottom;verticalAlign=top;imageAspect=0;aspect=fixed;image=data:image/svg+xml,PHN2ZyB4bWxucz0iaHR0cDovL3d3dy53My5vcmcvMjAwMC9zdmciIHZlcnNpb249IjEiIHZpZXdCb3g9IjAgMCA0OCA0OCIgZW5hYmxlLWJhY2tncm91bmQ9Im5ldyAwIDAgNDggNDgiPiYjeGE7ICAgIDxwYXRoIGZpbGw9IiMwMDk2ODgiIGQ9Ik0zNywzOUgxMWwtNiw2VjExYzAtMy4zLDIuNy02LDYtNmgyNmMzLjMsMCw2LDIuNyw2LDZ2MjJDNDMsMzYuMyw0MC4zLDM5LDM3LDM5eiIvPiYjeGE7ICAgIDxnIGZpbGw9IiNmZmYiPiYjeGE7ICAgICAgICA8Y2lyY2xlIGN4PSIyNCIgY3k9IjIyIiByPSIzIi8+JiN4YTsgICAgICAgIDxjaXJjbGUgY3g9IjM0IiBjeT0iMjIiIHI9IjMiLz4mI3hhOyAgICAgICAgPGNpcmNsZSBjeD0iMTQiIGN5PSIyMiIgcj0iMyIvPiYjeGE7ICAgIDwvZz4mI3hhOzwvc3ZnPg==;labelBackgroundColor=#ffffff;" vertex="1" parent="1">
          <mxGeometry x="514" y="4176" width="48" height="48" as="geometry" />
        </mxCell>
        <mxCell id="3Nzo_0Z1UaSwp5EyXcx5-226" value="Customer Support" style="shape=image;verticalLabelPosition=bottom;verticalAlign=top;imageAspect=0;aspect=fixed;image=data:image/svg+xml,PHN2ZyB4bWxucz0iaHR0cDovL3d3dy53My5vcmcvMjAwMC9zdmciIHZlcnNpb249IjEiIHZpZXdCb3g9IjAgMCA0OCA0OCIgZW5hYmxlLWJhY2tncm91bmQ9Im5ldyAwIDAgNDggNDgiPiYjeGE7ICAgIDxyZWN0IHg9IjEzIiB5PSIzMCIgZmlsbD0iI0JGMzYwQyIgd2lkdGg9IjIyIiBoZWlnaHQ9IjEyIi8+JiN4YTsgICAgPGcgZmlsbD0iI0ZGQTcyNiI+JiN4YTsgICAgICAgIDxjaXJjbGUgY3g9IjEwIiBjeT0iMjYiIHI9IjQiLz4mI3hhOyAgICAgICAgPGNpcmNsZSBjeD0iMzgiIGN5PSIyNiIgcj0iNCIvPiYjeGE7ICAgIDwvZz4mI3hhOyAgICA8cGF0aCBmaWxsPSIjRkZCNzREIiBkPSJNMzksMTljMC0xMi43LTMwLTguMy0zMCwwYzAsMS44LDAsOC4yLDAsMTBjMCw4LjMsNi43LDE1LDE1LDE1czE1LTYuNywxNS0xNUMzOSwyNy4yLDM5LDIwLjgsMzksMTl6Ii8+JiN4YTsgICAgPGcgZmlsbD0iIzc4NDcxOSI+JiN4YTsgICAgICAgIDxjaXJjbGUgY3g9IjMwIiBjeT0iMjYiIHI9IjIiLz4mI3hhOyAgICAgICAgPGNpcmNsZSBjeD0iMTgiIGN5PSIyNiIgcj0iMiIvPiYjeGE7ICAgIDwvZz4mI3hhOyAgICA8cGF0aCBmaWxsPSIjRkY1NzIyIiBkPSJNMjQsMkMxNS41LDIsMyw3LjgsMywzNS42TDEzLDQyVjI0bDE2LjgtOS44TDM1LDIxdjIxbDEwLTguMmMwLTUuNi0wLjktMjktMTUuNC0yOUwyOC4yLDJIMjR6Ii8+JiN4YTsgICAgPHBhdGggZmlsbD0iIzc1NzU3NSIgZD0iTTQ1LDI0Yy0wLjYsMC0xLDAuNC0xLDF2LTdjMC04LjgtNy4yLTE2LTE2LTE2aC05Yy0wLjYsMC0xLDAuNC0xLDFzMC40LDEsMSwxaDljNy43LDAsMTQsNi4zLDE0LDE0djEwIGMwLDAuNiwwLjQsMSwxLDFzMS0wLjQsMS0xdjJjMCwzLjktMy4xLDctNyw3SDI0Yy0wLjYsMC0xLDAuNC0xLDFzMC40LDEsMSwxaDEzYzUsMCw5LTQsOS05di01QzQ2LDI0LjQsNDUuNiwyNCw0NSwyNHoiLz4mI3hhOyAgICA8ZyBmaWxsPSIjMzc0NzRGIj4mI3hhOyAgICAgICAgPHBhdGggZD0iTTQ1LDIyaC0xYy0xLjEsMC0yLDAuOS0yLDJ2NGMwLDEuMSwwLjksMiwyLDJoMWMxLjEsMCwyLTAuOSwyLTJ2LTRDNDcsMjIuOSw0Ni4xLDIyLDQ1LDIyeiIvPiYjeGE7ICAgICAgICA8Y2lyY2xlIGN4PSIyNCIgY3k9IjM4IiByPSIyIi8+JiN4YTsgICAgPC9nPiYjeGE7PC9zdmc+;labelBackgroundColor=#ffffff;" vertex="1" parent="1">
          <mxGeometry x="688" y="4430" width="48" height="48" as="geometry" />
        </mxCell>
        <mxCell id="3Nzo_0Z1UaSwp5EyXcx5-227" value="Home" style="shape=image;verticalLabelPosition=bottom;verticalAlign=top;imageAspect=0;aspect=fixed;image=data:image/svg+xml,PHN2ZyB4bWxucz0iaHR0cDovL3d3dy53My5vcmcvMjAwMC9zdmciIHZlcnNpb249IjEiIHZpZXdCb3g9IjAgMCA0OCA0OCIgZW5hYmxlLWJhY2tncm91bmQ9Im5ldyAwIDAgNDggNDgiPiYjeGE7ICAgIDxwb2x5Z29uIGZpbGw9IiNFOEVBRjYiIHBvaW50cz0iNDIsMzkgNiwzOSA2LDIzIDI0LDYgNDIsMjMiLz4mI3hhOyAgICA8ZyBmaWxsPSIjQzVDQUU5Ij4mI3hhOyAgICAgICAgPHBvbHlnb24gcG9pbnRzPSIzOSwyMSAzNCwxNiAzNCw5IDM5LDkiLz4mI3hhOyAgICAgICAgPHJlY3QgeD0iNiIgeT0iMzkiIHdpZHRoPSIzNiIgaGVpZ2h0PSI1Ii8+JiN4YTsgICAgPC9nPiYjeGE7ICAgIDxwb2x5Z29uIGZpbGw9IiNCNzFDMUMiIHBvaW50cz0iMjQsNC4zIDQsMjIuOSA2LDI1LjEgMjQsOC40IDQyLDI1LjEgNDQsMjIuOSIvPiYjeGE7ICAgIDxyZWN0IHg9IjE4IiB5PSIyOCIgZmlsbD0iI0Q4NDMxNSIgd2lkdGg9IjEyIiBoZWlnaHQ9IjE2Ii8+JiN4YTsgICAgPHJlY3QgeD0iMjEiIHk9IjE3IiBmaWxsPSIjMDE1NzlCIiB3aWR0aD0iNiIgaGVpZ2h0PSI2Ii8+JiN4YTsgICAgPHBhdGggZmlsbD0iI0ZGOEE2NSIgZD0iTTI3LjUsMzUuNWMtMC4zLDAtMC41LDAuMi0wLjUsMC41djJjMCwwLjMsMC4yLDAuNSwwLjUsMC41UzI4LDM4LjMsMjgsMzh2LTJDMjgsMzUuNywyNy44LDM1LjUsMjcuNSwzNS41eiIvPiYjeGE7PC9zdmc+;labelBackgroundColor=#ffffff;" vertex="1" parent="1">
          <mxGeometry y="4286" width="48" height="48" as="geometry" />
        </mxCell>
        <mxCell id="3Nzo_0Z1UaSwp5EyXcx5-228" value="Education" style="shape=image;verticalLabelPosition=bottom;verticalAlign=top;imageAspect=0;aspect=fixed;image=data:image/svg+xml,PHN2ZyB4bWxucz0iaHR0cDovL3d3dy53My5vcmcvMjAwMC9zdmciIHZlcnNpb249IjEiIHZpZXdCb3g9IjAgMCA0OCA0OCIgZW5hYmxlLWJhY2tncm91bmQ9Im5ldyAwIDAgNDggNDgiPiYjeGE7ICAgIDxnIGZpbGw9IiMzNzQ3NEYiPiYjeGE7ICAgICAgICA8cmVjdCB4PSI5IiB5PSIyMCIgd2lkdGg9IjMwIiBoZWlnaHQ9IjEzIi8+JiN4YTsgICAgICAgIDxlbGxpcHNlIGN4PSIyNCIgY3k9IjMzIiByeD0iMTUiIHJ5PSI2Ii8+JiN4YTsgICAgPC9nPiYjeGE7ICAgIDxwYXRoIGZpbGw9IiM3ODkwOUMiIGQ9Ik0yMy4xLDguMkwwLjYsMTguMWMtMC44LDAuNC0wLjgsMS41LDAsMS45bDIyLjUsOS45YzAuNiwwLjIsMS4yLDAuMiwxLjgsMGwyMi41LTkuOWMwLjgtMC40LDAuOC0xLjUsMC0xLjkgTDI0LjksOC4yQzI0LjMsNy45LDIzLjcsNy45LDIzLjEsOC4yeiIvPiYjeGE7ICAgIDxnIGZpbGw9IiMzNzQ3NEYiPiYjeGE7ICAgICAgICA8cGF0aCBkPSJNNDMuMiwyMC40bC0yMC0zLjRjLTAuNS0wLjEtMS4xLDAuMy0xLjIsMC44Yy0wLjEsMC41LDAuMywxLjEsMC44LDEuMkw0MiwyMi4yVjM3YzAsMC42LDAuNCwxLDEsMSBzMS0wLjQsMS0xVjIxLjRDNDQsMjAuOSw0My42LDIwLjUsNDMuMiwyMC40eiIvPiYjeGE7ICAgICAgICA8Y2lyY2xlIGN4PSI0MyIgY3k9IjM3IiByPSIyIi8+JiN4YTsgICAgICAgIDxwYXRoIGQ9Ik00Niw0MGMwLDEuNy0zLDYtMyw2cy0zLTQuMy0zLTZzMS4zLTMsMy0zUzQ2LDM4LjMsNDYsNDB6Ii8+JiN4YTsgICAgPC9nPiYjeGE7PC9zdmc+;labelBackgroundColor=#ffffff;" vertex="1" parent="1">
          <mxGeometry x="710" y="4320" width="48" height="48" as="geometry" />
        </mxCell>
        <mxCell id="3Nzo_0Z1UaSwp5EyXcx5-229" value="Alarm" style="shape=image;verticalLabelPosition=bottom;verticalAlign=top;imageAspect=0;aspect=fixed;image=data:image/svg+xml,PHN2ZyB4bWxucz0iaHR0cDovL3d3dy53My5vcmcvMjAwMC9zdmciIHZlcnNpb249IjEiIHZpZXdCb3g9IjAgMCA0OCA0OCIgZW5hYmxlLWJhY2tncm91bmQ9Im5ldyAwIDAgNDggNDgiPiYjeGE7ICAgIDxnIGZpbGw9IiMzNzQ3NEYiPiYjeGE7ICAgICAgICA8cGF0aCBkPSJNMzguNSw0NC42bC00LTRsMi4xLTIuMWw0LDRjMC42LDAuNiwwLjYsMS41LDAsMi4xbDAsMEM0MC4xLDQ1LjEsMzkuMSw0NS4xLDM4LjUsNDQuNnoiLz4mI3hhOyAgICAgICAgPHBhdGggZD0iTTkuNSw0NC42bDQtNGwtMi4xLTIuMWwtNCw0Yy0wLjYsMC42LTAuNiwxLjUsMCwyLjFsMCwwQzcuOSw0NS4xLDguOSw0NS4xLDkuNSw0NC42eiIvPiYjeGE7ICAgIDwvZz4mI3hhOyAgICA8Y2lyY2xlIGZpbGw9IiNDNjI4MjgiIGN4PSIyNCIgY3k9IjI0IiByPSIyMCIvPiYjeGE7ICAgIDxjaXJjbGUgZmlsbD0iI2VlZSIgY3g9IjI0IiBjeT0iMjQiIHI9IjE2Ii8+JiN4YTsgICAgPHJlY3QgeD0iMTkiIHk9IjIyLjEiIHRyYW5zZm9ybT0ibWF0cml4KC0uNzA3IC0uNzA3IC43MDcgLS43MDcgMTIuOTA0IDYyLjUzNykiIGZpbGw9IiNFNTM5MzUiIHdpZHRoPSIuOCIgaGVpZ2h0PSIxMyIvPiYjeGE7ICAgIDxyZWN0IHg9IjIzIiB5PSIxMSIgd2lkdGg9IjIiIGhlaWdodD0iMTMiLz4mI3hhOyAgICA8cmVjdCB4PSIyNi4xIiB5PSIyMi43IiB0cmFuc2Zvcm09Im1hdHJpeCgtLjcwNyAuNzA3IC0uNzA3IC0uNzA3IDY1Ljc4NyAyNy4yNSkiIHdpZHRoPSIyLjMiIGhlaWdodD0iOS4yIi8+JiN4YTsgICAgPGNpcmNsZSBjeD0iMjQiIGN5PSIyNCIgcj0iMiIvPiYjeGE7ICAgIDxjaXJjbGUgZmlsbD0iI0M2MjgyOCIgY3g9IjI0IiBjeT0iMjQiIHI9IjEiLz4mI3hhOyAgICA8cmVjdCB4PSIyMiIgeT0iMSIgZmlsbD0iIzM3NDc0RiIgd2lkdGg9IjQiIGhlaWdodD0iMyIvPiYjeGE7ICAgIDxnIGZpbGw9IiMzNzQ3NEYiPiYjeGE7ICAgICAgICA8cGF0aCBkPSJNNDQuNCwxNi4yYzIuNS0zLjUsMi4xLTguNC0xLTExLjVjLTMuMS0zLjEtOC0zLjUtMTEuNS0xTDQ0LjQsMTYuMnoiLz4mI3hhOyAgICAgICAgPHBhdGggZD0iTTMuNiwxNi4yYy0yLjUtMy41LTIuMS04LjQsMS0xMS41YzMuMS0zLjEsOC0zLjUsMTEuNS0xTDMuNiwxNi4yeiIvPiYjeGE7ICAgIDwvZz4mI3hhOzwvc3ZnPg==;labelBackgroundColor=#ffffff;" vertex="1" parent="1">
          <mxGeometry x="384" y="4200" width="48" height="48" as="geometry" />
        </mxCell>
        <mxCell id="3Nzo_0Z1UaSwp5EyXcx5-230" value="Business" style="shape=image;verticalLabelPosition=bottom;verticalAlign=top;imageAspect=0;aspect=fixed;image=data:image/svg+xml,PHN2ZyB4bWxucz0iaHR0cDovL3d3dy53My5vcmcvMjAwMC9zdmciIHZlcnNpb249IjEiIHZpZXdCb3g9IjAgMCA0OCA0OCIgZW5hYmxlLWJhY2tncm91bmQ9Im5ldyAwIDAgNDggNDgiPiYjeGE7ICAgIDxnIGZpbGw9IiMyNjMyMzgiPiYjeGE7ICAgICAgICA8cGF0aCBkPSJNMTEsNDRIOWMtMC42LDAtMS0wLjQtMS0xdi0yaDR2MkMxMiw0My42LDExLjYsNDQsMTEsNDR6Ii8+JiN4YTsgICAgICAgIDxwYXRoIGQ9Ik0zOSw0NGgtMmMtMC42LDAtMS0wLjQtMS0xdi0yaDR2MkM0MCw0My42LDM5LjYsNDQsMzksNDR6Ii8+JiN4YTsgICAgPC9nPiYjeGE7ICAgIDxwYXRoIGZpbGw9IiMzNzQ3NEYiIGQ9Ik0yNyw3aC02Yy0xLjcsMC0zLDEuMy0zLDN2M2gydi0zYzAtMC42LDAuNC0xLDEtMWg2YzAuNiwwLDEsMC40LDEsMXYzaDJ2LTNDMzAsOC4zLDI4LjcsNywyNyw3eiIvPiYjeGE7ICAgIDxwYXRoIGZpbGw9IiM3ODkwOUMiIGQ9Ik00MCw0M0g4Yy0yLjIsMC00LTEuOC00LTRWMTVjMC0yLjIsMS44LTQsNC00aDMyYzIuMiwwLDQsMS44LDQsNHYyNEM0NCw0MS4yLDQyLjIsNDMsNDAsNDN6Ii8+JiN4YTs8L3N2Zz4=;labelBackgroundColor=#ffffff;" vertex="1" parent="1">
          <mxGeometry x="188" y="4590" width="48" height="48" as="geometry" />
        </mxCell>
        <mxCell id="3Nzo_0Z1UaSwp5EyXcx5-231" value="Report" style="shape=image;verticalLabelPosition=bottom;verticalAlign=top;imageAspect=0;aspect=fixed;image=data:image/svg+xml,PHN2ZyB4bWxucz0iaHR0cDovL3d3dy53My5vcmcvMjAwMC9zdmciIHZlcnNpb249IjEiIHZpZXdCb3g9IjAgMCA0OCA0OCIgZW5hYmxlLWJhY2tncm91bmQ9Im5ldyAwIDAgNDggNDgiPiYjeGE7ICAgIDxwYXRoIGZpbGw9IiM3ODkwOUMiIGQ9Ik00MCw0MUg4Yy0yLjIsMC00LTEuOC00LTRsMC0yMC45YzAtMS4zLDAuNi0yLjUsMS43LTMuM0wyNCwwbDE4LjMsMTIuOGMxLjEsMC43LDEuNywyLDEuNywzLjNWMzcgQzQ0LDM5LjIsNDIuMiw0MSw0MCw0MXoiLz4mI3hhOyAgICA8cmVjdCB4PSIxMiIgeT0iMTEiIGZpbGw9IiNmZmYiIHdpZHRoPSIyNCIgaGVpZ2h0PSIyMiIvPiYjeGE7ICAgIDxwb2x5Z29uIGZpbGw9IiM5QzI3QjAiIHBvaW50cz0iMjQsMTMuNiAxOCwyMS40IDMwLDIxLjQiLz4mI3hhOyAgICA8cGF0aCBmaWxsPSIjQ0ZEOERDIiBkPSJNNDAsNDFIOGMtMi4yLDAtNC0xLjgtNC00bDAtMjBsMjAsMTNsMjAtMTN2MjBDNDQsMzkuMiw0Mi4yLDQxLDQwLDQxeiIvPiYjeGE7ICAgIDxwb2x5Z29uIGZpbGw9IiM5QzI3QjAiIHBvaW50cz0iMjQsMjggMjYsMjYuNyAyNiwyMCAyMiwyMCAyMiwyNi43Ii8+JiN4YTs8L3N2Zz4=;labelBackgroundColor=#ffffff;" vertex="1" parent="1">
          <mxGeometry x="164" y="4478" width="48" height="48" as="geometry" />
        </mxCell>
        <mxCell id="3Nzo_0Z1UaSwp5EyXcx5-232" value="Storage" style="shape=image;verticalLabelPosition=bottom;verticalAlign=top;imageAspect=0;aspect=fixed;image=data:image/svg+xml,PHN2ZyB4bWxucz0iaHR0cDovL3d3dy53My5vcmcvMjAwMC9zdmciIHZlcnNpb249IjEiIHZpZXdCb3g9IjAgMCA0OCA0OCIgZW5hYmxlLWJhY2tncm91bmQ9Im5ldyAwIDAgNDggNDgiPiYjeGE7ICAgIDxyZWN0IHg9IjEyIiB5PSI0NCIgZmlsbD0iIzI2MzIzOCIgd2lkdGg9IjQiIGhlaWdodD0iMiIvPiYjeGE7ICAgIDxyZWN0IHg9IjMyIiB5PSI0NCIgZmlsbD0iIzI2MzIzOCIgd2lkdGg9IjQiIGhlaWdodD0iMiIvPiYjeGE7ICAgIDxwYXRoIGZpbGw9IiM2MDdEOEIiIGQ9Ik04LDQxVjdjMC0yLjIsMS44LTQsNC00aDI0YzIuMiwwLDQsMS44LDQsNHYzNGMwLDIuMi0xLjgsNC00LDRIMTJDOS44LDQ1LDgsNDMuMiw4LDQxeiIvPiYjeGE7ICAgIDxwYXRoIGZpbGw9IiNCMEJFQzUiIGQ9Ik0xMiwxN1Y4YzAtMC42LDAuNC0xLDEtMWgyMmMwLjYsMCwxLDAuNCwxLDF2OUgxMnoiLz4mI3hhOyAgICA8cmVjdCB4PSIxMiIgeT0iMTkiIGZpbGw9IiNCMEJFQzUiIHdpZHRoPSIyNCIgaGVpZ2h0PSIxMCIvPiYjeGE7ICAgIDxwYXRoIGZpbGw9IiNCMEJFQzUiIGQ9Ik0xMiw0MHYtOWgyNHY5YzAsMC42LTAuNCwxLTEsMUgxM0MxMi40LDQxLDEyLDQwLjYsMTIsNDB6Ii8+JiN4YTsgICAgPHJlY3QgeD0iMjAiIHk9IjExIiBmaWxsPSIjNTQ2RTdBIiB3aWR0aD0iOCIgaGVpZ2h0PSIyIi8+JiN4YTsgICAgPHJlY3QgeD0iMjAiIHk9IjIzIiBmaWxsPSIjNTQ2RTdBIiB3aWR0aD0iOCIgaGVpZ2h0PSIyIi8+JiN4YTsgICAgPHJlY3QgeD0iMjAiIHk9IjM1IiBmaWxsPSIjNTQ2RTdBIiB3aWR0aD0iOCIgaGVpZ2h0PSIyIi8+JiN4YTs8L3N2Zz4=;labelBackgroundColor=#ffffff;" vertex="1" parent="1">
          <mxGeometry x="654" y="4560" width="48" height="48" as="geometry" />
        </mxCell>
        <mxCell id="3Nzo_0Z1UaSwp5EyXcx5-233" value="Internet" style="shape=image;verticalLabelPosition=bottom;verticalAlign=top;imageAspect=0;aspect=fixed;image=data:image/svg+xml,PHN2ZyB4bWxucz0iaHR0cDovL3d3dy53My5vcmcvMjAwMC9zdmciIHZlcnNpb249IjEiIHZpZXdCb3g9IjAgMCA0OCA0OCIgZW5hYmxlLWJhY2tncm91bmQ9Im5ldyAwIDAgNDggNDgiPiYjeGE7ICAgIDxwYXRoIGZpbGw9IiM3Q0IzNDIiIGQ9Ik0yNCw0QzEzLDQsNCwxMyw0LDI0czksMjAsMjAsMjBzMjAtOSwyMC0yMFMzNSw0LDI0LDR6Ii8+JiN4YTsgICAgPHBhdGggZmlsbD0iIzAyNzdCRCIgZD0iTTQ1LDI0YzAsMTEuNy05LjUsMjEtMjEsMjFTMywzNS43LDMsMjRTMTIuMywzLDI0LDNTNDUsMTIuMyw0NSwyNHogTTIzLjgsMzMuN2MwLTAuNC0wLjItMC42LTAuNi0wLjggYy0xLjMtMC40LTIuNS0wLjQtMy42LTEuNWMtMC4yLTAuNC0wLjItMC44LTAuNC0xLjNjLTAuNC0wLjQtMS41LTAuNi0yLjEtMC44Yy0wLjgsMC0xLjcsMC0yLjcsMGMtMC40LDAtMS4xLDAtMS41LDAgYy0wLjYtMC4yLTEuMS0xLjEtMS41LTEuN2MwLTAuMiwwLTAuNi0wLjQtMC42Yy0wLjQtMC4yLTAuOCwwLjItMS4zLDBjLTAuMi0wLjItMC4yLTAuNC0wLjItMC42YzAtMC42LDAuNC0xLjMsMC44LTEuNyBjMC42LTAuNCwxLjMsMC4yLDEuOSwwLjJjMC4yLDAsMC4yLDAsMC40LDAuMmMwLjYsMC4yLDAuOCwxLDAuOCwxLjdjMCwwLjIsMCwwLjQsMCwwLjRjMCwwLjIsMC4yLDAuMiwwLjQsMC4yIGMwLjItMS4xLDAuMi0yLjEsMC40LTMuMmMwLTEuMywxLjMtMi41LDIuMy0yLjljMC40LTAuMiwwLjYsMC4yLDEuMSwwYzEuMy0wLjQsNC40LTEuNywzLjgtMy40Yy0wLjQtMS41LTEuNy0yLjktMy40LTIuNyBjLTAuNCwwLjItMC42LDAuNC0xLDAuNmMtMC42LDAuNC0xLjksMS43LTIuNSwxLjdjLTEuMS0wLjItMS4xLTEuNy0wLjgtMi4zYzAuMi0wLjgsMi4xLTMuNiwzLjQtMy4xYzAuMiwwLjIsMC42LDAuNiwwLjgsMC44IGMwLjQsMC4yLDEuMSwwLjIsMS43LDAuMmMwLjIsMCwwLjQsMCwwLjYtMC4yYzAuMi0wLjIsMC4yLTAuMiwwLjItMC40YzAtMC42LTAuNi0xLjMtMS0xLjdjLTAuNC0wLjQtMS4xLTAuOC0xLjctMS4xIGMtMi4xLTAuNi01LjUsMC4yLTcuMSwxLjdzLTIuOSw0LTMuOCw2LjFjLTAuNCwxLjMtMC44LDIuOS0xLDQuNGMtMC4yLDEtMC40LDEuOSwwLjIsMi45YzAuNiwxLjMsMS45LDIuNSwzLjIsMy40IGMwLjgsMC42LDIuNSwwLjYsMy40LDEuN2MwLjYsMC44LDAuNCwxLjksMC40LDIuOWMwLDEuMywwLjgsMi4zLDEuMywzLjRjMC4yLDAuNiwwLjQsMS41LDAuNiwyLjFjMCwwLjIsMC4yLDEuNSwwLjIsMS43IGMxLjMsMC42LDIuMywxLjMsMy44LDEuN2MwLjIsMCwxLTEuMywxLTEuNWMwLjYtMC42LDEuMS0xLjUsMS43LTEuOWMwLjQtMC4yLDAuOC0wLjQsMS4zLTAuOGMwLjQtMC40LDAuNi0xLjMsMC44LTEuOSBDMjMuOCwzNS4xLDI0LDM0LjMsMjMuOCwzMy43eiBNMjQuMiwxNC4zYzAuMiwwLDAuNC0wLjIsMC44LTAuNGMwLjYtMC40LDEuMy0xLjEsMS45LTEuNWMwLjYtMC40LDEuMy0xLjEsMS43LTEuNSBjMC42LTAuNCwxLjEtMS4zLDEuMy0xLjljMC4yLTAuNCwwLjgtMS4zLDAuNi0xLjljLTAuMi0wLjQtMS4zLTAuNi0xLjctMC44Yy0xLjctMC40LTMuMS0wLjYtNC44LTAuNmMtMC42LDAtMS41LDAuMi0xLjcsMC44IGMtMC4yLDEuMSwwLjYsMC44LDEuNSwxLjFjMCwwLDAuMiwxLjcsMC4yLDEuOWMwLjIsMS0wLjQsMS43LTAuNCwyLjdjMCwwLjYsMCwxLjcsMC40LDIuMUwyNC4yLDE0LjN6IE00MS44LDI5IGMwLjItMC40LDAuMi0xLjEsMC40LTEuNWMwLjItMSwwLjItMi4xLDAuMi0zLjFjMC0yLjEtMC4yLTQuMi0wLjgtNi4xYy0wLjQtMC42LTAuNi0xLjMtMC44LTEuOWMtMC40LTEuMS0xLTIuMS0xLjktMi45IGMtMC44LTEuMS0xLjktNC0zLjgtMy4xYy0wLjYsMC4yLTEsMS0xLjUsMS41Yy0wLjQsMC42LTAuOCwxLjMtMS4zLDEuOWMtMC4yLDAuMi0wLjQsMC42LTAuMiwwLjhjMCwwLjIsMC4yLDAuMiwwLjQsMC4yIGMwLjQsMC4yLDAuNiwwLjIsMSwwLjRjMC4yLDAsMC40LDAuMiwwLjIsMC40YzAsMCwwLDAuMi0wLjIsMC4yYy0xLDEuMS0yLjEsMS45LTMuMSwyLjljLTAuMiwwLjItMC40LDAuNi0wLjQsMC44IGMwLDAuMiwwLjIsMC4yLDAuMiwwLjRjMCwwLjItMC4yLDAuMi0wLjQsMC40Yy0wLjQsMC4yLTAuOCwwLjQtMS4xLDAuNmMtMC4yLDAuNCwwLDEuMS0wLjIsMS41Yy0wLjIsMS4xLTAuOCwxLjktMS4zLDIuOSBjLTAuNCwwLjYtMC42LDEuMy0xLDEuOWMwLDAuOC0wLjIsMS41LDAuMiwyLjFjMSwxLjUsMi45LDAuNiw0LjQsMS4zYzAuNCwwLjIsMC44LDAuMiwxLjEsMC42YzAuNiwwLjYsMC42LDEuNywwLjgsMi4zIGMwLjIsMC44LDAuNCwxLjcsMC44LDIuNWMwLjIsMSwwLjYsMi4xLDAuOCwyLjljMS45LTEuNSwzLjYtMy4xLDQuOC01LjJDNDAuNiwzMi40LDQxLjIsMzAuNyw0MS44LDI5eiIvPiYjeGE7PC9zdmc+;labelBackgroundColor=#ffffff;" vertex="1" parent="1">
          <mxGeometry x="514" y="4350" width="48" height="48" as="geometry" />
        </mxCell>
        <mxCell id="3Nzo_0Z1UaSwp5EyXcx5-234" value="Security" style="shape=image;verticalLabelPosition=bottom;verticalAlign=top;imageAspect=0;aspect=fixed;image=data:image/svg+xml,PHN2ZyB4bWxucz0iaHR0cDovL3d3dy53My5vcmcvMjAwMC9zdmciIHZlcnNpb249IjEiIHZpZXdCb3g9IjAgMCA0OCA0OCIgZW5hYmxlLWJhY2tncm91bmQ9Im5ldyAwIDAgNDggNDgiPiYjeGE7ICAgIDxwYXRoIGZpbGw9IiM0MjQyNDIiIGQ9Ik0yNCw0Yy01LjUsMC0xMCw0LjUtMTAsMTB2NGg0di00YzAtMy4zLDIuNy02LDYtNnM2LDIuNyw2LDZ2NGg0di00QzM0LDguNSwyOS41LDQsMjQsNHoiLz4mI3hhOyAgICA8cGF0aCBmaWxsPSIjRkI4QzAwIiBkPSJNMzYsNDRIMTJjLTIuMiwwLTQtMS44LTQtNFYyMmMwLTIuMiwxLjgtNCw0LTRoMjRjMi4yLDAsNCwxLjgsNCw0djE4QzQwLDQyLjIsMzguMiw0NCwzNiw0NHoiLz4mI3hhOyAgICA8Y2lyY2xlIGZpbGw9IiNDNzZFMDAiIGN4PSIyNCIgY3k9IjMxIiByPSIzIi8+JiN4YTs8L3N2Zz4=;labelBackgroundColor=#ffffff;" vertex="1" parent="1">
          <mxGeometry x="153" y="4320" width="48" height="48" as="geometry" />
        </mxCell>
        <mxCell id="3Nzo_0Z1UaSwp5EyXcx5-235" value="Calendar" style="shape=image;verticalLabelPosition=bottom;verticalAlign=top;imageAspect=0;aspect=fixed;image=data:image/svg+xml,PHN2ZyB4bWxucz0iaHR0cDovL3d3dy53My5vcmcvMjAwMC9zdmciIHZlcnNpb249IjEiIHZpZXdCb3g9IjAgMCA0OCA0OCIgZW5hYmxlLWJhY2tncm91bmQ9Im5ldyAwIDAgNDggNDgiPiYjeGE7ICAgIDxwYXRoIGZpbGw9IiNDRkQ4REMiIGQ9Ik01LDM4VjE0aDM4djI0YzAsMi4yLTEuOCw0LTQsNEg5QzYuOCw0Miw1LDQwLjIsNSwzOHoiLz4mI3hhOyAgICA8cGF0aCBmaWxsPSIjRjQ0MzM2IiBkPSJNNDMsMTB2Nkg1di02YzAtMi4yLDEuOC00LDQtNGgzMEM0MS4yLDYsNDMsNy44LDQzLDEweiIvPiYjeGE7ICAgIDxnIGZpbGw9IiNCNzFDMUMiPiYjeGE7ICAgICAgICA8Y2lyY2xlIGN4PSIzMyIgY3k9IjEwIiByPSIzIi8+JiN4YTsgICAgICAgIDxjaXJjbGUgY3g9IjE1IiBjeT0iMTAiIHI9IjMiLz4mI3hhOyAgICA8L2c+JiN4YTsgICAgPGcgZmlsbD0iI0IwQkVDNSI+JiN4YTsgICAgICAgIDxwYXRoIGQ9Ik0zMywzYy0xLjEsMC0yLDAuOS0yLDJ2NWMwLDEuMSwwLjksMiwyLDJzMi0wLjksMi0yVjVDMzUsMy45LDM0LjEsMywzMywzeiIvPiYjeGE7ICAgICAgICA8cGF0aCBkPSJNMTUsM2MtMS4xLDAtMiwwLjktMiwydjVjMCwxLjEsMC45LDIsMiwyczItMC45LDItMlY1QzE3LDMuOSwxNi4xLDMsMTUsM3oiLz4mI3hhOyAgICA8L2c+JiN4YTsgICAgPGcgZmlsbD0iI0IwQkVDNSI+JiN4YTsgICAgICAgIDxyZWN0IHg9IjEzIiB5PSIyMSIgd2lkdGg9IjYiIGhlaWdodD0iNiIvPiYjeGE7ICAgICAgICA8cmVjdCB4PSIyMSIgeT0iMjEiIHdpZHRoPSI2IiBoZWlnaHQ9IjYiLz4mI3hhOyAgICAgICAgPHJlY3QgeD0iMjkiIHk9IjIxIiB3aWR0aD0iNiIgaGVpZ2h0PSI2Ii8+JiN4YTsgICAgICAgIDxyZWN0IHg9IjEzIiB5PSIyOSIgd2lkdGg9IjYiIGhlaWdodD0iNiIvPiYjeGE7ICAgICAgICA8cmVjdCB4PSIyMSIgeT0iMjkiIHdpZHRoPSI2IiBoZWlnaHQ9IjYiLz4mI3hhOyAgICA8L2c+JiN4YTsgICAgPHJlY3QgeD0iMjkiIHk9IjI5IiBmaWxsPSIjRjQ0MzM2IiB3aWR0aD0iNiIgaGVpZ2h0PSI2Ii8+JiN4YTs8L3N2Zz4=;labelBackgroundColor=#ffffff;" vertex="1" parent="1">
          <mxGeometry x="640" y="4230" width="48" height="48" as="geometry" />
        </mxCell>
        <mxCell id="3Nzo_0Z1UaSwp5EyXcx5-236" value="Analytics" style="shape=image;verticalLabelPosition=bottom;verticalAlign=top;imageAspect=0;aspect=fixed;image=data:image/svg+xml,PHN2ZyB4bWxucz0iaHR0cDovL3d3dy53My5vcmcvMjAwMC9zdmciIHZlcnNpb249IjEiIHZpZXdCb3g9IjAgMCA0OCA0OCIgZW5hYmxlLWJhY2tncm91bmQ9Im5ldyAwIDAgNDggNDgiPiYjeGE7ICAgIDxwb2x5Z29uIGZpbGw9IiM5MENBRjkiIHBvaW50cz0iMzYuOSwxMy44IDM1LjEsMTAuMiA3LjUsMjQgMzUuMSwzNy44IDM2LjksMzQuMiAxNi41LDI0Ii8+JiN4YTsgICAgPHJlY3QgeD0iNiIgeT0iMTgiIGZpbGw9IiNEODFCNjAiIHdpZHRoPSIxMiIgaGVpZ2h0PSIxMiIvPiYjeGE7ICAgIDxnIGZpbGw9IiMyMTk2RjMiPiYjeGE7ICAgICAgICA8cmVjdCB4PSIzMCIgeT0iNiIgd2lkdGg9IjEyIiBoZWlnaHQ9IjEyIi8+JiN4YTsgICAgICAgIDxyZWN0IHg9IjMwIiB5PSIzMCIgd2lkdGg9IjEyIiBoZWlnaHQ9IjEyIi8+JiN4YTsgICAgPC9nPiYjeGE7PC9zdmc+;labelBackgroundColor=#ffffff;" vertex="1" parent="1">
          <mxGeometry x="406" y="4614" width="48" height="48" as="geometry" />
        </mxCell>
        <mxCell id="3Nzo_0Z1UaSwp5EyXcx5-237" value="Store" style="shape=image;verticalLabelPosition=bottom;verticalAlign=top;imageAspect=0;aspect=fixed;image=data:image/svg+xml,PHN2ZyB4bWxucz0iaHR0cDovL3d3dy53My5vcmcvMjAwMC9zdmciIHZlcnNpb249IjEiIHZpZXdCb3g9IjAgMCA0OCA0OCIgZW5hYmxlLWJhY2tncm91bmQ9Im5ldyAwIDAgNDggNDgiPiYjeGE7ICAgIDxyZWN0IHg9IjUiIHk9IjE5IiBmaWxsPSIjQ0ZEOERDIiB3aWR0aD0iMzgiIGhlaWdodD0iMTkiLz4mI3hhOyAgICA8cmVjdCB4PSI1IiB5PSIzOCIgZmlsbD0iI0IwQkVDNSIgd2lkdGg9IjM4IiBoZWlnaHQ9IjQiLz4mI3hhOyAgICA8cmVjdCB4PSIyNyIgeT0iMjQiIGZpbGw9IiM0NTVBNjQiIHdpZHRoPSIxMiIgaGVpZ2h0PSIxOCIvPiYjeGE7ICAgIDxyZWN0IHg9IjkiIHk9IjI0IiBmaWxsPSIjRTNGMkZEIiB3aWR0aD0iMTQiIGhlaWdodD0iMTEiLz4mI3hhOyAgICA8cmVjdCB4PSIxMCIgeT0iMjUiIGZpbGw9IiMxRTg4RTUiIHdpZHRoPSIxMiIgaGVpZ2h0PSI5Ii8+JiN4YTsgICAgPHBhdGggZmlsbD0iIzkwQTRBRSIgZD0iTTM2LjUsMzMuNWMtMC4zLDAtMC41LDAuMi0wLjUsMC41djJjMCwwLjMsMC4yLDAuNSwwLjUsMC41UzM3LDM2LjMsMzcsMzZ2LTJDMzcsMzMuNywzNi44LDMzLjUsMzYuNSwzMy41eiIvPiYjeGE7ICAgIDxnIGZpbGw9IiM1NThCMkYiPiYjeGE7ICAgICAgICA8Y2lyY2xlIGN4PSIyNCIgY3k9IjE5IiByPSIzIi8+JiN4YTsgICAgICAgIDxjaXJjbGUgY3g9IjM2IiBjeT0iMTkiIHI9IjMiLz4mI3hhOyAgICAgICAgPGNpcmNsZSBjeD0iMTIiIGN5PSIxOSIgcj0iMyIvPiYjeGE7ICAgIDwvZz4mI3hhOyAgICA8cGF0aCBmaWxsPSIjN0NCMzQyIiBkPSJNNDAsNkg4QzYuOSw2LDYsNi45LDYsOHYzaDM2VjhDNDIsNi45LDQxLjEsNiw0MCw2eiIvPiYjeGE7ICAgIDxyZWN0IHg9IjIxIiB5PSIxMSIgZmlsbD0iIzdDQjM0MiIgd2lkdGg9IjYiIGhlaWdodD0iOCIvPiYjeGE7ICAgIDxwb2x5Z29uIGZpbGw9IiM3Q0IzNDIiIHBvaW50cz0iMzcsMTEgMzIsMTEgMzMsMTkgMzksMTkiLz4mI3hhOyAgICA8cG9seWdvbiBmaWxsPSIjN0NCMzQyIiBwb2ludHM9IjExLDExIDE2LDExIDE1LDE5IDksMTkiLz4mI3hhOyAgICA8ZyBmaWxsPSIjRkZBMDAwIj4mI3hhOyAgICAgICAgPGNpcmNsZSBjeD0iMzAiIGN5PSIxOSIgcj0iMyIvPiYjeGE7ICAgICAgICA8cGF0aCBkPSJNNDUsMTljMCwxLjctMS4zLDMtMywzcy0zLTEuMy0zLTNzMS4zLTMsMy0zTDQ1LDE5eiIvPiYjeGE7ICAgICAgICA8Y2lyY2xlIGN4PSIxOCIgY3k9IjE5IiByPSIzIi8+JiN4YTsgICAgICAgIDxwYXRoIGQ9Ik0zLDE5YzAsMS43LDEuMywzLDMsM3MzLTEuMywzLTNzLTEuMy0zLTMtM0wzLDE5eiIvPiYjeGE7ICAgIDwvZz4mI3hhOyAgICA8ZyBmaWxsPSIjRkZDMTA3Ij4mI3hhOyAgICAgICAgPHBvbHlnb24gcG9pbnRzPSIzMiwxMSAyNywxMSAyNywxOSAzMywxOSIvPiYjeGE7ICAgICAgICA8cG9seWdvbiBwb2ludHM9IjQyLDExIDM3LDExIDM5LDE5IDQ1LDE5Ii8+JiN4YTsgICAgICAgIDxwb2x5Z29uIHBvaW50cz0iMTYsMTEgMjEsMTEgMjEsMTkgMTUsMTkiLz4mI3hhOyAgICAgICAgPHBvbHlnb24gcG9pbnRzPSI2LDExIDExLDExIDksMTkgMywxOSIvPiYjeGE7ICAgIDwvZz4mI3hhOzwvc3ZnPg==;labelBackgroundColor=#ffffff;" vertex="1" parent="1">
          <mxGeometry x="288" y="4608" width="48" height="48" as="geometry" />
        </mxCell>
        <mxCell id="3Nzo_0Z1UaSwp5EyXcx5-238" value="User" style="shape=image;verticalLabelPosition=bottom;verticalAlign=top;imageAspect=0;aspect=fixed;image=data:image/svg+xml,PHN2ZyB4bWxucz0iaHR0cDovL3d3dy53My5vcmcvMjAwMC9zdmciIHZlcnNpb249IjEiIHZpZXdCb3g9IjAgMCA0OCA0OCIgZW5hYmxlLWJhY2tncm91bmQ9Im5ldyAwIDAgNDggNDgiPiYjeGE7ICAgIDxwb2x5Z29uIGZpbGw9IiNGRjk4MDAiIHBvaW50cz0iMjQsMzcgMTksMzEgMTksMjUgMjksMjUgMjksMzEiLz4mI3hhOyAgICA8ZyBmaWxsPSIjRkZBNzI2Ij4mI3hhOyAgICAgICAgPGNpcmNsZSBjeD0iMzMiIGN5PSIxOSIgcj0iMiIvPiYjeGE7ICAgICAgICA8Y2lyY2xlIGN4PSIxNSIgY3k9IjE5IiByPSIyIi8+JiN4YTsgICAgPC9nPiYjeGE7ICAgIDxwYXRoIGZpbGw9IiNGRkI3NEQiIGQ9Ik0zMywxM2MwLTcuNi0xOC01LTE4LDBjMCwxLjEsMCw1LjksMCw3YzAsNSw0LDksOSw5czktNCw5LTlDMzMsMTguOSwzMywxNC4xLDMzLDEzeiIvPiYjeGE7ICAgIDxwYXRoIGZpbGw9IiM0MjQyNDIiIGQ9Ik0yNCw0Yy02LjEsMC0xMCw0LjktMTAsMTFjMCwwLjgsMCwyLjMsMCwyLjNsMiwxLjd2LTVsMTItNGw0LDR2NWwyLTEuN2MwLDAsMC0xLjUsMC0yLjNjMC00LTEtOC02LTlsLTEtMiBIMjR6Ii8+JiN4YTsgICAgPGcgZmlsbD0iIzc4NDcxOSI+JiN4YTsgICAgICAgIDxjaXJjbGUgY3g9IjI4IiBjeT0iMTkiIHI9IjEiLz4mI3hhOyAgICAgICAgPGNpcmNsZSBjeD0iMjAiIGN5PSIxOSIgcj0iMSIvPiYjeGE7ICAgIDwvZz4mI3hhOyAgICA8cG9seWdvbiBmaWxsPSIjZmZmIiBwb2ludHM9IjI0LDQzIDE5LDMxIDI0LDMyIDI5LDMxIi8+JiN4YTsgICAgPHBvbHlnb24gZmlsbD0iI0QzMkYyRiIgcG9pbnRzPSIyMywzNSAyMi4zLDM5LjUgMjQsNDMuNSAyNS43LDM5LjUgMjUsMzUgMjYsMzQgMjQsMzIgMjIsMzQiLz4mI3hhOyAgICA8cGF0aCBmaWxsPSIjNTQ2RTdBIiBkPSJNMjksMzFMMjksMzFsLTUsMTJsLTUtMTJjMCwwLTExLDItMTEsMTNoMzJDNDAsMzMsMjksMzEsMjksMzF6Ii8+JiN4YTs8L3N2Zz4=;labelBackgroundColor=#ffffff;" vertex="1" parent="1">
          <mxGeometry x="34" y="4194" width="48" height="48" as="geometry" />
        </mxCell>
        <mxCell id="3Nzo_0Z1UaSwp5EyXcx5-239" value="User" style="shape=image;verticalLabelPosition=bottom;verticalAlign=top;imageAspect=0;aspect=fixed;image=data:image/svg+xml,PHN2ZyB4bWxucz0iaHR0cDovL3d3dy53My5vcmcvMjAwMC9zdmciIHZlcnNpb249IjEiIHZpZXdCb3g9IjAgMCA0OCA0OCIgZW5hYmxlLWJhY2tncm91bmQ9Im5ldyAwIDAgNDggNDgiPiYjeGE7ICAgIDxwb2x5Z29uIGZpbGw9IiNGRjk4MDAiIHBvaW50cz0iMjQsMzcgMTksMzEgMTksMjUgMjksMjUgMjksMzEiLz4mI3hhOyAgICA8ZyBmaWxsPSIjRkZBNzI2Ij4mI3hhOyAgICAgICAgPGNpcmNsZSBjeD0iMzMiIGN5PSIxOSIgcj0iMiIvPiYjeGE7ICAgICAgICA8Y2lyY2xlIGN4PSIxNSIgY3k9IjE5IiByPSIyIi8+JiN4YTsgICAgPC9nPiYjeGE7ICAgIDxwYXRoIGZpbGw9IiNGRkI3NEQiIGQ9Ik0zMywxM2MwLTcuNi0xOC01LTE4LDBjMCwxLjEsMCw1LjksMCw3YzAsNSw0LDksOSw5czktNCw5LTlDMzMsMTguOSwzMywxNC4xLDMzLDEzeiIvPiYjeGE7ICAgIDxwYXRoIGZpbGw9IiM0MjQyNDIiIGQ9Ik0yNCw0Yy02LjEsMC0xMCw0LjktMTAsMTFjMCwwLjgsMCwyLjMsMCwyLjNsMiwxLjd2LTVsMTItNGw0LDR2NWwyLTEuN2MwLDAsMC0xLjUsMC0yLjNjMC00LTEtOC02LTlsLTEtMiBIMjR6Ii8+JiN4YTsgICAgPGcgZmlsbD0iIzc4NDcxOSI+JiN4YTsgICAgICAgIDxjaXJjbGUgY3g9IjI4IiBjeT0iMTkiIHI9IjEiLz4mI3hhOyAgICAgICAgPGNpcmNsZSBjeD0iMjAiIGN5PSIxOSIgcj0iMSIvPiYjeGE7ICAgIDwvZz4mI3hhOyAgICA8cG9seWdvbiBmaWxsPSIjZmZmIiBwb2ludHM9IjI0LDQzIDE5LDMxIDI0LDMyIDI5LDMxIi8+JiN4YTsgICAgPHBvbHlnb24gZmlsbD0iI0QzMkYyRiIgcG9pbnRzPSIyMywzNSAyMi4zLDM5LjUgMjQsNDMuNSAyNS43LDM5LjUgMjUsMzUgMjYsMzQgMjQsMzIgMjIsMzQiLz4mI3hhOyAgICA8cGF0aCBmaWxsPSIjNTQ2RTdBIiBkPSJNMjksMzFMMjksMzFsLTUsMTJsLTUtMTJjMCwwLTExLDItMTEsMTNoMzJDNDAsMzMsMjksMzEsMjksMzF6Ii8+JiN4YTs8L3N2Zz4=;labelBackgroundColor=#ffffff;" vertex="1" parent="1">
          <mxGeometry x="224" y="4206" width="48" height="48" as="geometry" />
        </mxCell>
        <mxCell id="3Nzo_0Z1UaSwp5EyXcx5-240" value="User" style="shape=image;verticalLabelPosition=bottom;verticalAlign=top;imageAspect=0;aspect=fixed;image=data:image/svg+xml,PHN2ZyB4bWxucz0iaHR0cDovL3d3dy53My5vcmcvMjAwMC9zdmciIHZlcnNpb249IjEiIHZpZXdCb3g9IjAgMCA0OCA0OCIgZW5hYmxlLWJhY2tncm91bmQ9Im5ldyAwIDAgNDggNDgiPiYjeGE7ICAgIDxwb2x5Z29uIGZpbGw9IiNGRjk4MDAiIHBvaW50cz0iMjQsMzcgMTksMzEgMTksMjUgMjksMjUgMjksMzEiLz4mI3hhOyAgICA8ZyBmaWxsPSIjRkZBNzI2Ij4mI3hhOyAgICAgICAgPGNpcmNsZSBjeD0iMzMiIGN5PSIxOSIgcj0iMiIvPiYjeGE7ICAgICAgICA8Y2lyY2xlIGN4PSIxNSIgY3k9IjE5IiByPSIyIi8+JiN4YTsgICAgPC9nPiYjeGE7ICAgIDxwYXRoIGZpbGw9IiNGRkI3NEQiIGQ9Ik0zMywxM2MwLTcuNi0xOC01LTE4LDBjMCwxLjEsMCw1LjksMCw3YzAsNSw0LDksOSw5czktNCw5LTlDMzMsMTguOSwzMywxNC4xLDMzLDEzeiIvPiYjeGE7ICAgIDxwYXRoIGZpbGw9IiM0MjQyNDIiIGQ9Ik0yNCw0Yy02LjEsMC0xMCw0LjktMTAsMTFjMCwwLjgsMCwyLjMsMCwyLjNsMiwxLjd2LTVsMTItNGw0LDR2NWwyLTEuN2MwLDAsMC0xLjUsMC0yLjNjMC00LTEtOC02LTlsLTEtMiBIMjR6Ii8+JiN4YTsgICAgPGcgZmlsbD0iIzc4NDcxOSI+JiN4YTsgICAgICAgIDxjaXJjbGUgY3g9IjI4IiBjeT0iMTkiIHI9IjEiLz4mI3hhOyAgICAgICAgPGNpcmNsZSBjeD0iMjAiIGN5PSIxOSIgcj0iMSIvPiYjeGE7ICAgIDwvZz4mI3hhOyAgICA8cG9seWdvbiBmaWxsPSIjZmZmIiBwb2ludHM9IjI0LDQzIDE5LDMxIDI0LDMyIDI5LDMxIi8+JiN4YTsgICAgPHBvbHlnb24gZmlsbD0iI0QzMkYyRiIgcG9pbnRzPSIyMywzNSAyMi4zLDM5LjUgMjQsNDMuNSAyNS43LDM5LjUgMjUsMzUgMjYsMzQgMjQsMzIgMjIsMzQiLz4mI3hhOyAgICA8cGF0aCBmaWxsPSIjNTQ2RTdBIiBkPSJNMjksMzFMMjksMzFsLTUsMTJsLTUtMTJjMCwwLTExLDItMTEsMTNoMzJDNDAsMzMsMjksMzEsMjksMzF6Ii8+JiN4YTs8L3N2Zz4=;labelBackgroundColor=#ffffff;" vertex="1" parent="1">
          <mxGeometry x="129" y="4170" width="48" height="48" as="geometry" />
        </mxCell>
        <mxCell id="3Nzo_0Z1UaSwp5EyXcx5-241" value="Security" style="shape=image;verticalLabelPosition=bottom;verticalAlign=top;imageAspect=0;aspect=fixed;image=data:image/svg+xml,PHN2ZyB4bWxucz0iaHR0cDovL3d3dy53My5vcmcvMjAwMC9zdmciIHZlcnNpb249IjEiIHZpZXdCb3g9IjAgMCA0OCA0OCIgZW5hYmxlLWJhY2tncm91bmQ9Im5ldyAwIDAgNDggNDgiPiYjeGE7ICAgIDxwYXRoIGZpbGw9IiM0MjQyNDIiIGQ9Ik0yNCw0Yy01LjUsMC0xMCw0LjUtMTAsMTB2NGg0di00YzAtMy4zLDIuNy02LDYtNnM2LDIuNyw2LDZ2NGg0di00QzM0LDguNSwyOS41LDQsMjQsNHoiLz4mI3hhOyAgICA8cGF0aCBmaWxsPSIjRkI4QzAwIiBkPSJNMzYsNDRIMTJjLTIuMiwwLTQtMS44LTQtNFYyMmMwLTIuMiwxLjgtNCw0LTRoMjRjMi4yLDAsNCwxLjgsNCw0djE4QzQwLDQyLjIsMzguMiw0NCwzNiw0NHoiLz4mI3hhOyAgICA8Y2lyY2xlIGZpbGw9IiNDNzZFMDAiIGN4PSIyNCIgY3k9IjMxIiByPSIzIi8+JiN4YTs8L3N2Zz4=;labelBackgroundColor=#ffffff;" vertex="1" parent="1">
          <mxGeometry x="380" y="4478" width="48" height="48" as="geometry" />
        </mxCell>
        <mxCell id="3Nzo_0Z1UaSwp5EyXcx5-242" value="" style="fontColor=#0066CC;verticalAlign=top;verticalLabelPosition=bottom;labelPosition=center;align=center;html=1;fillColor=#CCCCCC;strokeColor=#000000;gradientColor=none;gradientDirection=north;strokeWidth=2;shape=mxgraph.networks.satellite;rounded=1;shadow=0;comic=0;" vertex="1" parent="1">
          <mxGeometry x="775" y="120" width="100" height="100" as="geometry" />
        </mxCell>
        <mxCell id="3Nzo_0Z1UaSwp5EyXcx5-243" value="Production site 2" style="whiteSpace=wrap;html=1;fillColor=#dae8fc;fontSize=14;strokeColor=none;verticalAlign=bottom;" vertex="1" parent="1">
          <mxGeometry x="205" y="4794" width="660" height="260" as="geometry" />
        </mxCell>
        <mxCell id="3Nzo_0Z1UaSwp5EyXcx5-244" style="edgeStyle=elbowEdgeStyle;rounded=0;html=1;startSize=10;endSize=10;jettySize=auto;orthogonalLoop=1;fontSize=14;endArrow=none;endFill=0;strokeColor=#808080;elbow=vertical;" edge="1" parent="1" source="3Nzo_0Z1UaSwp5EyXcx5-245" target="3Nzo_0Z1UaSwp5EyXcx5-247">
          <mxGeometry relative="1" as="geometry" />
        </mxCell>
        <mxCell id="3Nzo_0Z1UaSwp5EyXcx5-245" value="" style="shadow=0;dashed=0;html=1;strokeColor=none;fillColor=#4495D1;labelPosition=center;verticalLabelPosition=bottom;verticalAlign=top;shape=mxgraph.veeam.2d.backup_repository_2;fontSize=14;" vertex="1" parent="1">
          <mxGeometry x="222" y="4841" width="58" height="50" as="geometry" />
        </mxCell>
        <mxCell id="3Nzo_0Z1UaSwp5EyXcx5-246" style="edgeStyle=elbowEdgeStyle;rounded=0;html=1;startSize=10;endSize=10;jettySize=auto;orthogonalLoop=1;fontSize=14;endArrow=none;endFill=0;strokeColor=#808080;elbow=vertical;" edge="1" parent="1" source="3Nzo_0Z1UaSwp5EyXcx5-247" target="3Nzo_0Z1UaSwp5EyXcx5-249">
          <mxGeometry relative="1" as="geometry" />
        </mxCell>
        <mxCell id="3Nzo_0Z1UaSwp5EyXcx5-247" value="Source ESX host" style="shadow=0;dashed=0;html=1;strokeColor=none;fillColor=#4495D1;labelPosition=center;verticalLabelPosition=top;verticalAlign=bottom;shape=mxgraph.veeam.2d.vmware_host;fontSize=14;align=center;" vertex="1" parent="1">
          <mxGeometry x="495" y="4841" width="124" height="120" as="geometry" />
        </mxCell>
        <mxCell id="3Nzo_0Z1UaSwp5EyXcx5-248" style="rounded=0;html=1;startSize=10;endSize=10;jettySize=auto;orthogonalLoop=1;fontSize=14;endArrow=none;endFill=0;strokeColor=#808080;" edge="1" parent="1" source="3Nzo_0Z1UaSwp5EyXcx5-249">
          <mxGeometry relative="1" as="geometry">
            <mxPoint x="823.1214953271028" y="4780" as="targetPoint" />
          </mxGeometry>
        </mxCell>
        <mxCell id="3Nzo_0Z1UaSwp5EyXcx5-249" value="VMware&amp;nbsp;&lt;div&gt;backup&amp;nbsp;&lt;span&gt;proxy&lt;/span&gt;&lt;/div&gt;" style="shadow=0;dashed=0;html=1;strokeColor=none;fillColor=#4495D1;labelPosition=center;verticalLabelPosition=top;verticalAlign=bottom;shape=mxgraph.veeam.2d.proxy;fontSize=14;align=center;" vertex="1" parent="1">
          <mxGeometry x="775" y="4841" width="46" height="46" as="geometry" />
        </mxCell>
        <mxCell id="3Nzo_0Z1UaSwp5EyXcx5-250" style="edgeStyle=orthogonalEdgeStyle;rounded=0;html=1;startSize=10;endSize=10;jettySize=auto;orthogonalLoop=1;fontSize=14;endArrow=none;endFill=0;strokeColor=#808080;" edge="1" parent="1" source="3Nzo_0Z1UaSwp5EyXcx5-253" target="3Nzo_0Z1UaSwp5EyXcx5-245">
          <mxGeometry relative="1" as="geometry">
            <mxPoint x="265" y="4994" as="targetPoint" />
            <Array as="points">
              <mxPoint x="422" y="5004" />
              <mxPoint x="251" y="5004" />
            </Array>
          </mxGeometry>
        </mxCell>
        <mxCell id="3Nzo_0Z1UaSwp5EyXcx5-251" style="edgeStyle=orthogonalEdgeStyle;rounded=0;html=1;startSize=10;endSize=10;jettySize=auto;orthogonalLoop=1;fontSize=14;endArrow=none;endFill=0;strokeColor=#808080;" edge="1" parent="1" source="3Nzo_0Z1UaSwp5EyXcx5-253" target="3Nzo_0Z1UaSwp5EyXcx5-247">
          <mxGeometry relative="1" as="geometry">
            <Array as="points">
              <mxPoint x="422" y="5004" />
              <mxPoint x="558" y="5004" />
            </Array>
          </mxGeometry>
        </mxCell>
        <mxCell id="3Nzo_0Z1UaSwp5EyXcx5-252" style="edgeStyle=orthogonalEdgeStyle;rounded=0;html=1;entryX=0.202;entryY=1.004;entryPerimeter=0;startSize=10;endSize=10;jettySize=auto;orthogonalLoop=1;fontSize=14;endArrow=none;endFill=0;strokeColor=#808080;" edge="1" parent="1" source="3Nzo_0Z1UaSwp5EyXcx5-253" target="3Nzo_0Z1UaSwp5EyXcx5-249">
          <mxGeometry relative="1" as="geometry">
            <Array as="points">
              <mxPoint x="469" y="5004" />
              <mxPoint x="798" y="5004" />
              <mxPoint x="798" y="4888" />
            </Array>
          </mxGeometry>
        </mxCell>
        <mxCell id="3Nzo_0Z1UaSwp5EyXcx5-253" value="Veeam backup server" style="shadow=0;dashed=0;html=1;strokeColor=none;fillColor=#4495D1;labelPosition=center;verticalLabelPosition=bottom;verticalAlign=top;shape=mxgraph.veeam.2d.veeam_backup_and_replication_server;fontSize=14;" vertex="1" parent="1">
          <mxGeometry x="385" y="5114" width="74" height="72" as="geometry" />
        </mxCell>
        <mxCell id="3Nzo_0Z1UaSwp5EyXcx5-254" value="Transport&lt;div&gt;service&lt;/div&gt;" style="shadow=0;dashed=0;html=1;strokeColor=none;fillColor=#4495D1;labelPosition=right;verticalLabelPosition=middle;verticalAlign=middle;shape=mxgraph.veeam.2d.data_mover;fontSize=14;align=left;" vertex="1" parent="1">
          <mxGeometry x="265" y="4914" width="38" height="38" as="geometry" />
        </mxCell>
        <mxCell id="3Nzo_0Z1UaSwp5EyXcx5-255" value="Transport&lt;div&gt;service&lt;/div&gt;" style="shadow=0;dashed=0;html=1;strokeColor=none;fillColor=#4495D1;labelPosition=left;verticalLabelPosition=middle;verticalAlign=middle;shape=mxgraph.veeam.2d.data_mover;fontSize=14;align=right;" vertex="1" parent="1">
          <mxGeometry x="745" y="4914" width="38" height="38" as="geometry" />
        </mxCell>
        <mxCell id="3Nzo_0Z1UaSwp5EyXcx5-256" value="1. no vlan&amp;nbsp;&lt;br&gt;no hardware .&amp;nbsp;&lt;br&gt;&lt;br&gt;&lt;br&gt;2. app only&amp;nbsp;" style="text;html=1;align=center;verticalAlign=middle;resizable=0;points=[];autosize=1;strokeColor=none;fillColor=none;" vertex="1" parent="1">
          <mxGeometry x="331" y="-710" width="100" height="90" as="geometry" />
        </mxCell>
      </root>
    </mxGraphModel>
  </diagram>
</mxfile>
